<?xml version="1.0" encoding="UTF-8"?>
<svg version="1.1" xmlns="http://www.w3.org/2000/svg" width="2332" height="1252">
<path d="M0 0 C1.54457886 0.10586426 1.54457886 0.10586426 3.12036133 0.21386719 C4.81841919 0.35356934 4.81841919 0.35356934 6.55078125 0.49609375 C8.36968872 0.63772949 8.36968872 0.63772949 10.2253418 0.78222656 C88.85565254 7.30675541 166.71093183 22.99667148 241.86328125 46.93359375 C242.6331134 47.17873718 243.40294556 47.42388062 244.19610596 47.67645264 C314.73986457 70.20866103 384.61295958 99.06164277 448.56347656 136.60009766 C451.56590785 138.34099784 454.60803307 140.00356958 457.65478516 141.6652832 C465.43028667 145.91060732 473.04270625 150.39566908 480.61328125 154.99609375 C481.59659424 155.5888208 482.57990723 156.18154785 483.59301758 156.79223633 C487.85036892 159.38034743 492.02533746 161.98174611 496.015625 164.96875 C501.87709948 169.61634842 501.87709948 169.61634842 508.98828125 170.5859375 C512.06571382 169.53962074 512.06571382 169.53962074 514.99609375 168.15625 C521.4716114 165.39489166 528.00168736 166.41229115 534.55078125 168.49609375 C542.3858387 171.67035383 548.83580749 177.45622968 552.86328125 184.93359375 C556.0733842 192.91331776 556.2998461 202.13776128 553.8359375 210.36328125 C550.08344309 218.53353225 544.33767257 225.30241259 535.92578125 228.87109375 C526.87360825 231.63155839 517.96475425 231.64129391 509.2578125 227.77734375 C501.59098689 223.60176551 496.12760763 217.80353895 492.92578125 209.62109375 C491.33533198 204.15149994 491.60557402 198.5745186 491.86328125 192.93359375 C491.1256958 192.65612305 490.38811035 192.37865234 489.62817383 192.09277344 C487.09412692 191.03037567 484.93889222 189.85607622 482.625 188.38671875 C481.81804687 187.87906982 481.01109375 187.3714209 480.1796875 186.84838867 C478.87837891 186.02431519 478.87837891 186.02431519 477.55078125 185.18359375 C437.91377917 160.40008765 396.52270029 138.05836354 353.86328125 118.93359375 C353.23528625 118.65171204 352.60729126 118.36983032 351.96026611 118.07940674 C332.12684213 109.18478263 312.10343961 100.85805575 291.86328125 92.93359375 C291.86328125 96.18668789 293.4079661 99.03515836 294.6171875 102.01367188 C294.90979462 102.74226913 295.20240173 103.47086639 295.50387573 104.22154236 C296.14077971 105.80618071 296.77927653 107.39017956 297.41915894 108.97361755 C298.43053507 111.47660869 299.43763908 113.98127962 300.44360352 116.4864502 C302.57966654 121.80370954 304.72109635 127.11879833 306.86328125 132.43359375 C309.34484577 138.59039552 311.82423565 144.74805344 314.29782104 150.9080658 C315.29218638 153.38096903 316.29067763 155.85218034 317.28930664 158.32336426 C317.89619917 159.83333311 318.50289918 161.34337936 319.109375 162.85351562 C319.38989716 163.54448837 319.67041931 164.23546112 319.95944214 164.94737244 C321.86328125 169.70590683 321.86328125 169.70590683 321.86328125 171.93359375 C322.73807129 172.21251465 323.61286133 172.49143555 324.51416016 172.77880859 C329.93192522 174.64686726 335.04805656 177.13947012 340.23828125 179.55859375 C341.1348645 179.97461853 341.1348645 179.97461853 342.04956055 180.39904785 C354.00891078 185.95436402 365.80147879 191.8326759 377.55224609 197.81494141 C378.21159149 198.14887909 378.87093689 198.48281677 379.55026245 198.82687378 C381.34047564 199.73391398 383.12833029 200.64560494 384.91601562 201.55761719 C389.38890696 203.76400087 389.38890696 203.76400087 394.08203125 203.19140625 C394.83484375 202.81757813 395.58765625 202.44375 396.36328125 202.05859375 C404.92618283 197.86511798 413.4474144 197.85438313 422.48046875 200.8984375 C430.3613303 204.32209047 436.10989863 210.37487788 439.8984375 218.0234375 C442.93455396 225.83261146 443.12776568 234.31307341 440.23828125 242.18359375 C435.74918004 251.90997971 429.76245551 257.96798681 419.60546875 261.78125 C411.31356608 264.02511614 402.66480192 263.02359322 394.99609375 259.23046875 C387.11209522 254.43653558 381.17843322 248.01611302 378.86328125 238.93359375 C377.51462225 230.63091176 377.51462225 230.63091176 378.86328125 227.93359375 C378.05383057 227.69294189 377.24437988 227.45229004 376.41040039 227.2043457 C372.11243736 225.66460466 368.16727859 223.68098228 364.109375 221.6015625 C362.36289186 220.71749667 360.6163057 219.83363434 358.86962891 218.94995117 C357.01328965 218.00711034 355.1570082 217.06415568 353.30078125 216.12109375 C337.70459092 208.18229849 337.70459092 208.18229849 321.78125 200.93359375 C321.1035405 200.6420491 320.42583099 200.35050446 319.72758484 200.05012512 C316.63059033 198.72498843 313.5273078 197.43796388 310.39624023 196.1940918 C309.31544189 195.74074463 308.23464355 195.28739746 307.12109375 194.8203125 C306.19441895 194.45123779 305.26774414 194.08216309 304.31298828 193.7019043 C298.08884303 189.20903166 295.90750601 179.16016957 293.27073288 172.23940468 C292.50345693 170.22639347 291.73072872 168.21554592 290.95669556 166.2051239 C288.96204311 161.02186529 286.97507794 155.83566636 284.98820496 150.64942169 C281.3787492 141.2306742 277.74666183 131.8215805 274.05373764 122.43519783 C272.46556498 118.39550424 270.89247639 114.35105346 269.34863281 110.29418945 C267.81691059 106.27087535 266.25016271 102.26290334 264.65806961 98.26311302 C264.06737471 96.76142548 263.48916701 95.254757 262.92448044 93.74309731 C260.08179111 85.5241264 260.08179111 85.5241264 254.46559143 79.20471191 C251.93317271 78.16334852 249.53881973 77.4970739 246.86328125 76.93359375 C245.62215576 76.50288574 244.38103027 76.07217773 243.10229492 75.62841797 C241.33462769 75.06405029 241.33462769 75.06405029 239.53125 74.48828125 C238.53913513 74.17141357 238.53913513 74.17141357 237.52697754 73.84814453 C235.37002922 73.16248546 233.21083592 72.48439989 231.05078125 71.80859375 C230.29407135 71.57126526 229.53736145 71.33393677 228.75772095 71.0894165 C210.93159717 65.51702841 192.95938249 60.54878659 174.86328125 55.93359375 C174.10698425 55.74065735 173.35068726 55.54772095 172.57147217 55.34893799 C120.6901113 42.16983014 68.12073892 33.58134646 14.85205078 28.58105469 C13.84503113 28.48473755 12.83801147 28.38842041 11.80047607 28.28918457 C9.92358823 28.11045581 8.04620695 27.93679942 6.16827393 27.76940918 C-7.31805749 26.48139057 -7.31805749 26.48139057 -12.07421875 22.43359375 C-15.39961077 18.40281555 -15.53616596 15.60037514 -15.484375 10.48046875 C-14.91008274 6.27329403 -13.29043899 4.73690063 -10.13671875 1.93359375 C-6.55985649 0.1709368 -3.95790592 -0.28097253 0 0 Z " fill="#00BABC" transform="translate(1327.13671875,116.06640625)"/>
<path d="M0 0 C1.6543103 0.52533325 1.6543103 0.52533325 3.34204102 1.0612793 C46.74992516 15.07812949 88.66553605 32.78306382 129.625 52.8125 C130.5020459 53.23740723 131.3790918 53.66231445 132.28271484 54.10009766 C141.98026271 58.80075343 151.49055123 63.76262661 160.875 69.0625 C161.8242334 69.5975415 162.7734668 70.13258301 163.75146484 70.68383789 C168.91162963 73.61868703 173.99569374 76.644888 179.03125 79.7890625 C180.09182617 80.4397168 181.15240234 81.09037109 182.24511719 81.76074219 C184.27620599 83.01108172 186.29361341 84.28403015 188.29394531 85.58300781 C189.22303711 86.15116211 190.15212891 86.71931641 191.109375 87.3046875 C191.91084961 87.81370605 192.71232422 88.32272461 193.53808594 88.84716797 C203.0194487 91.81215598 214.92380161 87.41582966 224.37685776 85.34267807 C227.16691592 84.73129047 229.95876805 84.12880303 232.75125122 83.52859497 C240.68222427 81.82223234 248.60961841 80.0995009 256.53613281 78.37255859 C261.40348232 77.31274669 266.27282373 76.26252439 271.14346695 75.21796036 C272.99344917 74.81906189 274.84261311 74.41634838 276.69091415 74.00973129 C279.26850258 73.44270197 281.84843086 72.88779551 284.42919922 72.33544922 C285.18875412 72.16511169 285.94830902 71.99477417 286.73088074 71.8192749 C291.65332612 70.78321076 295.28632512 70.44987909 299.69873047 73.02075195 C300.37307129 73.52566162 301.04741211 74.03057129 301.7421875 74.55078125 C302.50635986 75.11756592 303.27053223 75.68435059 304.05786133 76.26831055 C304.86376709 76.88101807 305.66967285 77.49372559 306.5 78.125 C307.76203247 79.07016479 307.76203247 79.07016479 309.04956055 80.03442383 C315.48554625 84.88044998 321.80660595 89.86194733 328.0625 94.9375 C331.05738416 97.36631814 334.09116051 99.7403821 337.13818359 102.10327148 C342.70195238 106.42217531 348.03268364 110.87880539 353.21875 115.65234375 C355.68302083 117.86458688 358.22496455 119.93377684 360.8125 122 C365.50203564 125.79026389 369.9195114 129.80841652 374.3125 133.9375 C374.95783691 134.54110352 375.60317383 135.14470703 376.26806641 135.76660156 C378.92188989 138.25298061 381.55883161 140.74725346 384.1484375 143.30078125 C384.82132813 143.94402344 385.49421875 144.58726562 386.1875 145.25 C386.72503906 145.78496094 387.26257812 146.31992187 387.81640625 146.87109375 C390.58230231 148.31079343 392.63448026 147.45253744 395.625 146.8125 C406.26278056 145.98901699 414.53739668 147.2139083 422.9375 154.0625 C428.95865551 159.7430649 433.11826108 166.56742309 433.92578125 174.92578125 C433.96807862 186.47296406 431.83605549 194.38880761 423.625 202.8125 C414.80877524 209.80761269 405.63425099 210.71564728 394.625 209.8125 C386.49371865 207.99466334 379.74027018 203.40016156 375.0546875 196.5 C372.18707923 191.51855477 370.27612231 187.46701994 370.94921875 181.65234375 C372.0287446 171.97902402 372.0287446 171.97902402 368.30859375 163.43359375 C365.81774377 161.01036678 363.07090872 158.96374104 360.22802734 156.97265625 C357.8271775 155.23509328 355.71913481 153.21563966 353.5625 151.1875 C349.37211 147.42280042 345.04394662 143.8612329 340.6640625 140.3203125 C337.15441389 137.42417573 333.73495408 134.43554174 330.3125 131.4375 C324.47470252 126.34286901 318.52409104 121.45178012 312.375 116.73828125 C309.53978869 114.55740848 306.79599022 112.2874206 304.0625 109.98046875 C303.27464111 109.33070068 302.48678223 108.68093262 301.67504883 108.01147461 C300.13529208 106.74125883 298.61067701 105.45239119 297.10424805 104.14282227 C296.39308838 103.56459717 295.68192871 102.98637207 294.94921875 102.390625 C294.0224231 101.60800293 294.0224231 101.60800293 293.0769043 100.80957031 C286.40661776 98.09708896 277.1274416 101.62809412 270.3515625 103.0625 C269.30600189 103.28067383 268.26044128 103.49884766 267.18319702 103.72363281 C264.98939169 104.18226207 262.79600643 104.64290489 260.60302734 105.10546875 C257.24021823 105.81456262 253.87610128 106.51716331 250.51171875 107.21875 C248.374921 107.66628965 246.23819947 108.11419341 244.1015625 108.5625 C243.09533844 108.77293945 242.08911438 108.98337891 241.05239868 109.20019531 C240.12067841 109.39709961 239.18895813 109.59400391 238.22900391 109.796875 C237.41009674 109.96928711 236.59118958 110.14169922 235.74746704 110.31933594 C233.45616107 110.81693993 233.45616107 110.81693993 230.625 111.8125 C231.13135986 112.16328613 231.63771973 112.51407227 232.15942383 112.87548828 C257.99233391 130.79799495 283.12623869 149.52207027 307.04956055 169.93823242 C310.29912402 172.70839338 313.59949153 175.40004087 316.9375 178.0625 C322.46948372 182.55622285 327.63194839 187.41109277 332.79223633 192.32128906 C336.04022174 195.40930945 339.31541691 198.43692352 342.70703125 201.3671875 C346.91592039 205.01902532 350.80247191 208.9320535 354.69140625 212.91796875 C357.55333272 215.82208579 360.47287455 218.57728933 363.5703125 221.23046875 C367.67429079 224.77802531 371.33558322 228.63185565 375 232.625 C375.65427979 233.31916016 376.30855957 234.01332031 376.98266602 234.72851562 C379.84753489 237.76875583 382.65973918 240.79829757 385.25390625 244.07421875 C388.79928201 248.27947832 390.88174538 250.58796315 396.4765625 251.30859375 C399.27867621 251.33286015 402.0527374 251.17640398 404.84765625 250.98828125 C412.46038556 250.63401773 418.0093889 253.43465961 423.83984375 258.15234375 C429.9726911 263.85575759 433.09065857 270.61896192 433.9453125 278.92578125 C434.28141803 288.45997464 432.43915967 295.72885229 426.3125 303.125 C419.03872044 310.80201681 412.5305163 313.82791287 401.8125 314.1875 C392.8638038 314.03550516 385.74804791 311.6721155 379.15625 305.515625 C372.99117 298.65854623 370.33428486 291.54556317 370.4375 282.3125 C370.44394531 281.0440625 370.45039062 279.775625 370.45703125 278.46875 C370.625 274.8125 370.625 274.8125 371.41015625 271.91674805 C371.94592094 268.7246177 371.94592094 268.7246177 369.90307617 266.19262695 C369.02111572 265.30019287 368.13915527 264.40775879 367.23046875 263.48828125 C366.74047897 262.98331619 366.2504892 262.47835114 365.74565125 261.95808411 C364.05534726 260.22575057 362.34029904 258.52006701 360.625 256.8125 C359.33146293 255.49794062 358.03936245 254.18196643 356.74853516 252.86474609 C353.23101449 249.28696564 349.68842451 245.73522167 346.13549805 242.19262695 C343.92705337 239.9895789 341.72405449 237.78118531 339.52148438 235.57226562 C338.09407076 234.14551235 336.66634723 232.71906905 335.23828125 231.29296875 C334.59224442 230.64490768 333.94620758 229.99684662 333.28059387 229.32914734 C329.46028818 225.52812228 325.53123564 221.90827287 321.44494629 218.39433289 C318.4894442 215.8255151 315.66055731 213.12402079 312.8125 210.4375 C307.86751138 205.80977689 302.81272762 201.41422182 297.5234375 197.1796875 C294.0496661 194.34261813 290.68501232 191.3934407 287.3125 188.4375 C280.27401454 182.29950193 273.03170536 176.49749441 265.625 170.8125 C264.83818848 170.2050293 264.05137695 169.59755859 263.24072266 168.97167969 C252.20920004 160.45810788 241.08526149 152.12480651 229.625 144.19628906 C227.65247743 142.83151148 225.6853641 141.4592107 223.71875 140.0859375 C153.85456269 91.47447977 77.31994157 53.99321626 -3.57836914 27.71777344 C-24.19888208 21.01662072 -24.19888208 21.01662072 -28 17.125 C-29.77655537 12.84511661 -30.19188547 9.37888977 -29.375 4.8125 C-23.14857326 -7.4179811 -10.87034833 -3.54308779 0 0 Z " fill="#00BABC" transform="translate(1506.375,398.1875)"/>
<path d="M0 0 C12.87 0 25.74 0 39 0 C48.15036433 9.84886542 48.15036433 9.84886542 49.7265625 14.359375 C51.88915723 19.93228841 54.75521415 24.60547316 58.0625 29.5625 C59.06087917 31.13753622 60.0543894 32.71566947 61.04296875 34.296875 C63.98186043 38.97198836 66.92690688 43.64318417 69.875 48.3125 C70.36202393 49.08424561 70.84904785 49.85599121 71.35083008 50.65112305 C74.08665516 54.98295736 76.83162258 59.30880236 79.5859375 63.62890625 C80.1958252 64.58563232 80.80571289 65.5423584 81.43408203 66.52807617 C82.59815993 68.35307112 83.76311932 70.17750429 84.92919922 72.0012207 C89.3659542 78.95590311 93.67462419 85.97126431 98 93 C98.33 62.31 98.66 31.62 99 0 C110.55 0 122.1 0 134 0 C134 49.83 134 99.66 134 151 C121.46 151 108.92 151 96 151 C84.47109958 137.72429649 84.47109958 137.72429649 81.70703125 131.59765625 C78.33289309 124.46109951 74.30872515 118.12307347 69.875 111.5625 C66.94625 107.086875 64.0175 102.61125 61 98 C53.08 86.12 45.16 74.24 37 62 C36.67 91.37 36.34 120.74 36 151 C24.12 151 12.24 151 0 151 C0 101.17 0 51.34 0 0 Z " fill="#313333" transform="translate(1797,786)"/>
<path d="M0 0 C12.41625 -0.0825 24.8325 -0.165 37.625 -0.25 C41.51748535 -0.28641602 45.4099707 -0.32283203 49.42041016 -0.36035156 C54.24487305 -0.37841797 54.24487305 -0.37841797 56.5171814 -0.3817749 C58.07411296 -0.38783992 59.63102806 -0.40174366 61.18783569 -0.42230225 C77.30843599 -0.62418294 90.73134401 1.48319165 103.02734375 12.87890625 C110.96945403 21.19041701 113.41144364 31.50848802 113.2734375 42.7421875 C112.33019024 53.98030485 107.07601147 62.85721133 98.5625 70.0625 C97.716875 70.701875 96.87125 71.34125 96 72 C96.71285156 72.4125 97.42570312 72.825 98.16015625 73.25 C106.75217069 78.43064935 113.86091546 84.05564058 117.33984375 93.76953125 C119.86042048 106.10395112 119.25570402 119.29232471 112.6796875 130.1875 C105.0567988 141.18445419 94.4560056 147.3028778 81.61413574 150.39126587 C74.37679025 151.61026248 67.08409866 151.36401791 59.765625 151.29296875 C58.22900724 151.28854617 56.69238493 151.28549288 55.15576172 151.28381348 C49.52043793 151.26822067 43.88521153 151.22633745 38.25 151.1875 C19.31625 151.0946875 19.31625 151.0946875 0 151 C0 101.17 0 51.34 0 0 Z M36 30 C36 39.9 36 49.8 36 60 C40.62 60.0825 45.24 60.165 50 60.25 C51.44117188 60.28641602 52.88234375 60.32283203 54.3671875 60.36035156 C63.10375893 60.4357507 68.69663546 59.75165114 75.4375 53.875 C77.71851949 49.67792414 78.18290867 45.74800417 78 41 C76.34946187 35.75711418 73.7569965 33.62120215 69 31 C65.43451775 29.79298691 62.00735241 29.88593266 58.265625 29.90234375 C57.09805664 29.90484131 55.93048828 29.90733887 54.72753906 29.90991211 C53.24995117 29.91901611 51.77236328 29.92812012 50.25 29.9375 C43.19625 29.9684375 43.19625 29.9684375 36 30 Z M36 90 C36 100.23 36 110.46 36 121 C40.69664148 121.09229208 45.39008515 121.17178017 50.08691406 121.21972656 C51.68142408 121.23973053 53.27586178 121.26694301 54.87011719 121.30175781 C67.05005583 121.75391162 67.05005583 121.75391162 78 117 C82.06713313 112.67047119 82.35229795 108.22098794 82.27734375 102.5078125 C81.86211988 98.753253 80.54415341 96.74500763 78 94 C71.9182469 90.16585131 65.89677413 89.87223601 58.8515625 89.90234375 C57.64838379 89.90484131 56.44520508 89.90733887 55.20556641 89.90991211 C53.69397949 89.91901611 52.18239258 89.92812012 50.625 89.9375 C43.385625 89.9684375 43.385625 89.9684375 36 90 Z " fill="#313232" transform="translate(1570,786)"/>
<path d="M0 0 C1.18231138 -0.00066278 1.18231138 -0.00066278 2.38850784 -0.00133896 C28.03138737 -0.00886515 53.48276029 0.47990957 79 3.25 C79.85086182 3.34192627 80.70172363 3.43385254 81.57836914 3.52856445 C99.62840775 5.49944071 117.6849477 7.65038882 135.50854492 11.16967773 C136.32556885 11.32766846 137.14259277 11.48565918 137.984375 11.6484375 C139.01643066 11.85992432 139.01643066 11.85992432 140.06933594 12.07568359 C143.0555485 12.3453037 145.23366688 11.86954792 147.5703125 9.98046875 C148.08335937 9.47128906 148.59640625 8.96210938 149.125 8.4375 C156.18489915 2.23017341 163.61686036 0.59616804 172.890625 0.93359375 C180.79180385 1.73760818 187.36193889 4.56446048 193 10.25 C199.30470888 18.84733029 201.8983403 26.61481003 201 37.25 C199.57893333 45.9055879 195.58582057 52.89176832 188.4609375 58.109375 C179.75950339 63.49964392 172.10501469 63.98376663 162 63.25 C153.60600728 61.23641215 146.78091535 55.25836312 142.0625 48.1875 C140.17235137 44.93365353 139.2844012 42.04201603 139 38.25 C138.4652002 38.21044189 137.93040039 38.17088379 137.37939453 38.13012695 C129.88001537 37.48394821 122.52295772 36.17005556 115.12176514 34.83877563 C98.18680319 31.81416594 81.22718157 29.24824805 64.11328125 27.47003174 C62.70286862 27.32318165 61.29270872 27.17388381 59.8828125 27.02215576 C11.4864364 21.82953591 -39.28262012 21.77908348 -87.6796875 27 C-90.07485391 27.25806507 -92.47092124 27.50627937 -94.8671875 27.75390625 C-158.06997727 34.38427129 -219.46281442 49.65756452 -279.2265625 71.0234375 C-279.97261749 71.28988068 -280.71867249 71.55632385 -281.48733521 71.83084106 C-285.1104996 73.14232754 -288.68632301 74.51696996 -292.22949219 76.03222656 C-292.90209076 76.3167569 -293.57468933 76.60128723 -294.26766968 76.8944397 C-296.07892944 77.67003559 -297.88048289 78.46819115 -299.68115234 79.26806641 C-303.5685126 80.41820345 -306.07901047 80.17227178 -310 79.25 C-312.4375 77.625 -312.4375 77.625 -314 75.25 C-314.5625 71.8125 -314.5625 71.8125 -314 68.25 C-309.77237764 62.62835561 -303.83216921 60.747387 -297.4375 58.25 C-296.25857178 57.78142578 -295.07964355 57.31285156 -293.86499023 56.83007812 C-289.92161431 55.27266971 -285.96336354 53.75571875 -282 52.25 C-281.30942505 51.98751465 -280.6188501 51.7250293 -279.90734863 51.45458984 C-206.73029129 23.7278893 -130.14449176 6.45895453 -52 1.25 C-50.14930908 1.11078125 -50.14930908 1.11078125 -48.26123047 0.96875 C-32.20637381 -0.15527874 -16.08599945 0.00413261 0 0 Z " fill="#00BABC" transform="translate(1253,452.75)"/>
<path d="M0 0 C86.82386364 0 86.82386364 0 102.875 14.0625 C114.1693116 26.53975695 115.92735323 42.57642893 115.19970703 58.60595703 C113.89241033 74.27753577 104.67760609 85.36046024 94 96 C94.27561768 96.54599854 94.55123535 97.09199707 94.83520508 97.65454102 C100.7833622 109.45398773 106.62696103 121.29548611 112.29418945 133.23266602 C112.93553833 134.5831604 112.93553833 134.5831604 113.58984375 135.9609375 C113.99444824 136.81397461 114.39905273 137.66701172 114.81591797 138.54589844 C115.94950193 140.89533885 117.12651563 143.21775767 118.31640625 145.5390625 C120 149 120 149 120 151 C106.8 151 93.6 151 80 151 C77.64875 146.153125 75.2975 141.30625 72.875 136.3125 C71.78227783 134.06240112 71.78227783 134.06240112 70.66748047 131.7668457 C67.57809669 125.39683941 64.51219342 119.01605109 61.5078125 112.60546875 C60.77908936 111.05122192 60.77908936 111.05122192 60.03564453 109.46557617 C59 107 59 107 59 105 C51.41 105 43.82 105 36 105 C36 120.18 36 135.36 36 151 C24.12 151 12.24 151 0 151 C0 101.17 0 51.34 0 0 Z M36 30 C36 44.85 36 59.7 36 75 C55.17074397 76.20144502 55.17074397 76.20144502 72 69 C76.75225205 64.11196932 78.73740535 58.7572438 79.375 52.0625 C79.02347867 45.16727384 77.34197493 39.81289563 72.1875 35.0625 C67.22356552 30.87139364 62.13390254 29.74124849 55.7265625 29.8046875 C54.68580566 29.80968262 53.64504883 29.81467773 52.57275391 29.81982422 C51.26999512 29.83803223 49.96723633 29.85624023 48.625 29.875 C42.375625 29.936875 42.375625 29.936875 36 30 Z " fill="#303232" transform="translate(1256,786)"/>
<path d="M0 0 C87.44007069 0 87.44007069 0 102.4140625 14.20703125 C112.92606198 26.09128682 115.94778574 40.54837976 115.31640625 56.0234375 C113.96009841 73.06938052 105.74474096 84.25525904 94 96 C94.31098129 96.63004944 94.62196259 97.26009888 94.94236755 97.90924072 C97.87445772 103.85140842 100.80280388 109.79540438 103.72697353 115.74147415 C105.23039519 118.79823228 106.73524778 121.85426817 108.2434082 124.90869141 C109.97777025 128.42139212 111.70584177 131.93716804 113.43359375 135.453125 C113.97527695 136.5480426 114.51696014 137.64296021 115.07505798 138.77105713 C115.57550125 139.79181335 116.07594452 140.81256958 116.59155273 141.86425781 C117.03345444 142.76138489 117.47535614 143.65851196 117.9306488 144.58282471 C119 147 119 147 120 151 C106.8 151 93.6 151 80 151 C74.87493199 140.74986399 69.81901559 130.51565132 65 120.125 C64.41026438 118.86583477 63.82042079 117.6067201 63.23046875 116.34765625 C62.40482422 114.57068359 62.40482422 114.57068359 61.5625 112.7578125 C61.06878906 111.6970752 60.57507813 110.63633789 60.06640625 109.54345703 C59 107 59 107 59 105 C51.08 105 43.16 105 35 105 C35 120.18 35 135.36 35 151 C23.45 151 11.9 151 0 151 C0 101.17 0 51.34 0 0 Z M35 30 C35 44.85 35 59.7 35 75 C54.85029669 76.24029959 54.85029669 76.24029959 72.30859375 68.76171875 C77.31616158 63.54598413 79.11244297 57.13388177 79 50 C78.20786446 43.33387476 75.53143512 38.39820169 70.625 33.75 C65.76597718 30.51065145 61.27854986 29.7497281 55.5078125 29.8046875 C53.88576904 29.81218018 53.88576904 29.81218018 52.23095703 29.81982422 C50.1985083 29.84713623 50.1985083 29.84713623 48.125 29.875 C43.79375 29.91625 39.4625 29.9575 35 30 Z " fill="#303232" transform="translate(649,786)"/>
<path d="M0 0 C0.85624969 -0.00044186 1.71249939 -0.00088371 2.59469604 -0.00133896 C29.32914338 -0.00856326 55.90548326 0.39198577 82.5345459 2.99676514 C85.23632262 3.26088256 87.93888909 3.51566952 90.64160156 3.77001953 C137.42296663 8.23207268 184.29933192 15.63102272 229.78369141 27.61157227 C230.69296387 27.84416748 231.60223633 28.0767627 232.5390625 28.31640625 C233.3120166 28.52209229 234.0849707 28.72777832 234.88134766 28.93969727 C238.34306056 29.41846082 241.11103981 28.96447828 243.9765625 26.9453125 C244.56179688 26.42710937 245.14703125 25.90890625 245.75 25.375 C252.44582128 20.11941197 260.75951256 18.45328691 269.125 19.25 C279.38983486 21.22717525 287.1916965 26.65502765 293.125 35.25 C297.4103403 43.10645721 297.52629149 53.36958035 295.46875 62.00390625 C292.03923183 70.50378966 285.36795373 77.34211215 277.125 81.25 C268.25876874 84.55107246 259.770296 83.80194332 251.125 80.25 C242.86055764 75.97804187 237.31266998 70.20853424 234.25 61.375 C233.59152517 59.20278993 233.125 57.51804006 233.125 55.25 C232.13628906 55.12633057 231.14757813 55.00266113 230.12890625 54.87524414 C226.03207495 54.28762704 222.06112989 53.29859305 218.0625 52.24609375 C216.46539285 51.83440887 214.86813661 51.4233021 213.27075195 51.01269531 C212.43371735 50.79665649 211.59668274 50.58061768 210.73428345 50.35803223 C139.54795246 32.064608 66.61093038 22.49078769 -6.875 21.25 C-7.74350586 21.23340332 -8.61201172 21.21680664 -9.50683594 21.19970703 C-14.96592441 21.10700553 -20.41625352 21.15257306 -25.875 21.25 C-27.0304834 21.26788574 -28.1859668 21.28577148 -29.37646484 21.30419922 C-81.64942105 22.19702991 -134.34195197 26.50003834 -185.6628418 36.81005859 C-191.25812812 37.92281723 -196.13861566 38.33949606 -201.0625 35.25 C-203.18947149 31.72949547 -203.20575523 30.06701676 -202.66015625 26.1171875 C-201.5219779 23.41047481 -200.46280966 22.69304651 -197.875 21.25 C-194.85823733 20.27554644 -191.79072892 19.63774802 -188.6875 19 C-187.70120605 18.79310547 -186.71491211 18.58621094 -185.69873047 18.37304688 C-143.54296925 9.76496466 -100.89624203 4.23696716 -57.97332764 1.39074707 C-56.60884088 1.29922299 -55.24459757 1.20396663 -53.88067627 1.10437012 C-35.95810388 -0.19015643 -17.95902155 0.00424605 0 0 Z " fill="#00BABC" transform="translate(1253.875,257.75)"/>
<path d="M0 0 C0.85049423 0.00222061 1.70098846 0.00444122 2.57725525 0.00672913 C4.01863609 0.00684242 4.01863609 0.00684242 5.48913574 0.00695801 C7.05630592 0.01469994 7.05630592 0.01469994 8.65513611 0.02259827 C9.71913132 0.02401321 10.78312653 0.02542816 11.87936401 0.02688599 C15.29293069 0.03250388 18.70643286 0.04505941 22.11997986 0.05775452 C24.42792162 0.06276721 26.73586441 0.06733052 29.04380798 0.07142639 C34.71505412 0.08247912 40.38626238 0.09923465 46.05747986 0.12025452 C46.25839233 0.73552002 46.45930481 1.35078552 46.66630554 1.98469543 C49.14727006 9.58030102 51.63225689 17.17458659 54.1191597 24.76824951 C54.80545628 26.86407487 55.49145424 28.95999782 56.17744446 31.05592346 C61.96399348 48.73086162 67.80186254 66.38787446 73.71111679 84.02219391 C74.68179926 86.91906569 75.65178762 89.81616905 76.62159729 92.71333313 C79.48586885 101.26838529 82.35279239 109.82249616 85.23294926 118.37221527 C86.43322361 121.93908708 87.62865694 125.50756819 88.82290459 129.07646179 C89.38357154 130.74827779 89.94638883 132.41937433 90.51146126 134.08970642 C91.2866016 136.38161944 92.05436694 138.67587684 92.82041931 140.97084045 C93.04929211 141.64150921 93.2781649 142.31217796 93.51397324 143.00317001 C94.59728805 146.27450043 95.05747986 148.61759646 95.05747986 152.12025452 C82.84747986 152.12025452 70.63747986 152.12025452 58.05747986 152.12025452 C56.57247986 147.70650452 55.08747986 143.29275452 53.55747986 138.74525452 C53.08761658 137.35387268 52.6177533 135.96249084 52.13365173 134.52894592 C51.76820251 133.43759338 51.4027533 132.34624084 51.02622986 131.22181702 C50.64917908 130.10113831 50.2721283 128.98045959 49.88365173 127.82582092 C49.05747986 125.12025452 49.05747986 125.12025452 49.05747986 123.12025452 C30.90747986 123.12025452 12.75747986 123.12025452 -5.94252014 123.12025452 C-6.93252014 126.75025452 -7.92252014 130.38025452 -8.94252014 134.12025452 C-9.98102536 137.362109 -11.03305353 140.58670942 -12.13002014 143.80775452 C-13.05814514 146.55087952 -13.98627014 149.29400452 -14.94252014 152.12025452 C-27.15252014 152.12025452 -39.36252014 152.12025452 -51.94252014 152.12025452 C-50.59601156 146.06096591 -49.16854195 140.39267073 -47.17689514 134.56556702 C-46.7727816 133.36369499 -46.7727816 133.36369499 -46.36050415 132.13754272 C-45.77937647 130.41025822 -45.19627384 128.68363712 -44.6113739 126.95762634 C-43.01249039 122.23786921 -41.42936704 117.51282357 -39.84486389 112.78822327 C-39.51741684 111.81291153 -39.18996979 110.83759979 -38.8526001 109.83273315 C-35.87470309 100.94959676 -32.97262109 92.04278886 -30.08750916 83.12916565 C-24.23202942 65.04262572 -18.27906881 46.98895981 -12.27958298 28.94977188 C-11.63123427 26.99890778 -10.98405125 25.04766061 -10.33720398 23.09629822 C-9.12985051 19.45463288 -7.91738442 15.81468224 -6.70423889 12.17494202 C-6.33825592 11.06984787 -5.97227295 9.96475372 -5.59519958 8.82617188 C-5.25952972 7.82219864 -4.92385986 6.8182254 -4.57801819 5.78382874 C-4.28493271 4.90314728 -3.99184723 4.02246582 -3.68988037 3.11509705 C-2.58272213 0.15988715 -2.58272213 0.15988715 0 0 Z M20.05747986 31.12025452 C17.57852505 39.05587803 15.10108558 46.99197229 12.62560272 54.92867947 C11.4762051 58.61362254 10.32627758 62.29839853 9.17515564 65.98280334 C8.06518078 69.53557585 6.95657619 73.0887732 5.84893799 76.64227486 C5.42519348 78.00086389 5.00094758 79.35929665 4.57620239 80.71757317 C3.98336513 82.61367962 3.39244336 84.51038466 2.80162048 86.40711975 C2.46408752 87.48855759 2.12655457 88.56999542 1.77879333 89.6842041 C1.01016071 91.85662988 1.01016071 91.85662988 1.05747986 93.12025452 C13.92747986 93.12025452 26.79747986 93.12025452 40.05747986 93.12025452 C38.47774267 85.04190776 38.47774267 85.04190776 36.36167908 77.21156311 C36.04149811 76.17123932 35.72131714 75.13091553 35.39143372 74.05906677 C35.05177582 72.9732431 34.71211792 71.88741943 34.36216736 70.76869202 C34.00986053 69.62864716 33.65755371 68.48860229 33.29457092 67.31401062 C32.17852245 63.70629888 31.05561817 60.1007646 29.93247986 56.49525452 C29.17030549 54.03576025 28.40858217 51.57612615 27.64732361 49.11634827 C25.78925544 43.11602349 23.92556788 37.11746687 22.05747986 31.12025452 C21.39747986 31.12025452 20.73747986 31.12025452 20.05747986 31.12025452 Z " fill="#303232" transform="translate(842.9425201416016,784.8797454833984)"/>
<path d="M0 0 C11.55 0 23.1 0 35 0 C35.01458252 3.0124585 35.02916504 6.02491699 35.04418945 9.12866211 C35.09460219 19.09920546 35.16120921 29.06959374 35.23571491 39.0399847 C35.28037816 45.0830393 35.3196434 51.1260271 35.34643555 57.16918945 C35.37250857 63.00483948 35.41293978 68.84023193 35.46318626 74.67572212 C35.47982785 76.89832917 35.49135894 79.12098074 35.49761391 81.34364128 C35.50728427 84.4649624 35.53537943 87.58562854 35.56762695 90.70678711 C35.56619186 91.61885422 35.56475677 92.53092133 35.5632782 93.47062683 C35.68360297 101.74491213 37.33242859 109.25881307 43.14453125 115.4296875 C49.41501705 120.73649864 56.80471311 123.40006578 65 123 C72.71578105 121.95057382 79.66089185 119.9076243 85 114 C90.58440107 105.53963238 91.14087613 97.17549288 91.20532227 87.30102539 C91.21522186 86.35390686 91.22512146 85.40678833 91.23532104 84.43096924 C91.26675086 81.31988979 91.29161982 78.20879511 91.31640625 75.09765625 C91.33699179 72.93289304 91.35798867 70.7681337 91.37937927 68.6033783 C91.43443473 62.92022856 91.48391658 57.23704355 91.53222656 51.55383301 C91.58256261 45.74874756 91.63818536 39.943713 91.69335938 34.13867188 C91.80073869 22.75915655 91.90173932 11.37959772 92 0 C103.55 0 115.1 0 127 0 C127.06805982 13.02281091 127.12297914 26.04550166 127.15543652 39.06845093 C127.17102261 45.1169908 127.19213058 51.16540158 127.22631836 57.21386719 C127.25916519 63.06239065 127.27690593 68.91079075 127.28463173 74.75939941 C127.29013012 76.97906432 127.30086564 79.19872328 127.31719017 81.41833496 C127.46954187 103.01266884 126.57158836 122.78703223 110.93359375 139.1640625 C96.97465375 152.49872075 77.49751207 154.46129698 59.03125 154.21484375 C42.7877698 153.71269315 26.2088118 149.54884821 14.06640625 138.19140625 C-0.71077171 122.39730421 -0.58174753 101.53418195 -0.390625 81.25 C-0.38314828 78.89632655 -0.37746213 76.54264679 -0.37347412 74.18896484 C-0.35833048 68.04706092 -0.31914768 61.90554603 -0.2746582 55.76379395 C-0.23346025 49.4753953 -0.21541111 43.18693271 -0.1953125 36.8984375 C-0.1526409 24.59876145 -0.08238518 12.29947421 0 0 Z " fill="#303232" transform="translate(1404,786)"/>
<path d="M0 0 C35.31 0 70.62 0 107 0 C107 9.9 107 19.8 107 30 C83.57 30 60.14 30 36 30 C36 39.9 36 49.8 36 60 C55.8 60 75.6 60 96 60 C96 69.9 96 79.8 96 90 C76.2 90 56.4 90 36 90 C36 100.23 36 110.46 36 121 C59.1 121 82.2 121 106 121 C106 130.9 106 140.8 106 151 C71.02 151 36.04 151 0 151 C0 101.17 0 51.34 0 0 Z " fill="#313232" transform="translate(507,786)"/>
<path d="M0 0 C12.54 0 25.08 0 38 0 C40.22614877 7.3477149 42.4517246 14.69557757 44.67308712 22.04473686 C45.75559053 25.62571556 46.83882672 29.20646867 47.92385864 32.78668213 C52.46532969 47.77447569 56.9736433 62.76657408 61.23828125 77.8359375 C61.55831116 78.96070496 61.87834106 80.08547241 62.20806885 81.24432373 C63.70380703 86.50315617 65.18288213 91.76559729 66.63330078 97.03710938 C67.15973688 98.89734638 67.68687348 100.75738534 68.21484375 102.6171875 C68.4401326 103.46203705 68.66542145 104.3068866 68.89753723 105.17733765 C69.58697984 107.71905092 69.58697984 107.71905092 71 111 C73.02956357 111.77137709 73.02956357 111.77137709 75 112 C75.21864212 111.10381454 75.43728424 110.20762909 75.66255188 109.2842865 C78.59385698 97.36624601 81.80427008 85.52900724 85.04296875 73.69140625 C85.61783702 71.58676108 86.19264986 69.48210077 86.76741028 67.37742615 C87.96211469 63.00445288 89.15822662 58.63186746 90.35522461 54.25952148 C91.8920966 48.64482128 93.42421011 43.02883424 94.95518017 37.41252232 C96.13584262 33.08409477 97.31955014 28.75650444 98.50414467 24.42915154 C99.07100689 22.35650055 99.63677382 20.2835497 100.201437 18.21029854 C100.98551675 15.3327566 101.77381299 12.45640315 102.56323242 9.58032227 C102.79647217 8.7207341 103.02971191 7.86114594 103.27001953 6.97550964 C104.88582949 1.11417051 104.88582949 1.11417051 106 0 C108.8116338 -0.08861992 111.59858255 -0.11522355 114.41015625 -0.09765625 C115.25219101 -0.0962413 116.09422577 -0.09482635 116.96177673 -0.09336853 C119.66205335 -0.08775263 122.36224828 -0.07519748 125.0625 -0.0625 C126.88867068 -0.05748705 128.71484266 -0.05292379 130.54101562 -0.04882812 C135.02737542 -0.03777804 139.51367384 -0.02050279 144 0 C142.01507103 7.48041507 139.84460347 14.88025549 137.5078125 22.2578125 C137.16940338 23.33146561 136.83099426 24.40511871 136.48233032 25.51130676 C135.36578719 29.05002128 134.24564298 32.58758185 133.125 36.125 C132.7381604 37.34833038 132.3513208 38.57166077 131.95275879 39.83206177 C125.29213945 60.89093372 118.54071118 81.9202523 111.75 102.9375 C111.52629982 103.63008156 111.30259964 104.32266312 111.07212067 105.03623199 C109.7682039 109.07299124 108.46309158 113.10936076 107.15626144 117.14517784 C106.57771402 118.93209358 105.99973278 120.71919261 105.42178345 122.50630188 C102.33587215 132.02348824 99.16421467 141.50735599 96 151 C80.16 151 64.32 151 48 151 C36.5920683 117.08452738 25.60233492 83.03567488 14.63616943 48.97544098 C13.63693313 45.87260038 12.63670029 42.77008096 11.63671875 39.66748047 C9.93078562 34.37189642 8.22989475 29.07472408 6.53411865 23.77587891 C5.93253511 21.89766199 5.32956924 20.01988722 4.72515869 18.14257812 C3.90888741 15.60549849 3.09811986 13.06673141 2.2890625 10.52734375 C2.05272095 9.79639999 1.81637939 9.06545624 1.57287598 8.31236267 C0.65699193 5.41901966 0 3.05606899 0 0 Z " fill="#303232" transform="translate(336,786)"/>
<path d="M0 0 C0 10.56 0 21.12 0 32 C-9 30 -9 30 -12.5625 29.18359375 C-28.52835169 25.71827821 -46.35540556 23.25854421 -61.265625 31.796875 C-70.06131069 37.89838669 -73.71127721 46.29381335 -76.3125 56.5 C-79.20364407 73.73566655 -77.75103983 93.15282849 -68 108 C-60.80171811 116.39799554 -51.60560925 119.5278221 -40.86328125 120.80859375 C-26.61079565 121.51473308 -13.37677804 117.45892601 0 113 C0 123.56 0 134.12 0 145 C-15.30860967 149.71034144 -15.30860967 149.71034144 -22.6875 150.75 C-23.53127197 150.87141357 -24.37504395 150.99282715 -25.24438477 151.11791992 C-47.07617931 154.01428628 -70.6371826 152.22516166 -89 139 C-104.90392666 125.64491456 -111.56189173 108.17131254 -114 88 C-115.63512807 63.04848773 -114.06095314 37.82281732 -97.5390625 17.72265625 C-97.03117187 17.15417969 -96.52328125 16.58570313 -96 16 C-95.43023438 15.33871094 -94.86046875 14.67742188 -94.2734375 13.99609375 C-86.07403799 5.10497535 -75.57629014 0.04719807 -64 -3 C-63.14921875 -3.22558594 -62.2984375 -3.45117188 -61.421875 -3.68359375 C-41.3560669 -7.93731038 -19.63940611 -4.90985153 0 0 Z " fill="#303232" transform="translate(1128,788)"/>
<path d="M0 0 C0.99 0.33 1.98 0.66 3 1 C4.08207703 3.79550171 4.08207703 3.79550171 5.0847168 7.58349609 C5.36335068 8.61524208 5.36335068 8.61524208 5.64761353 9.66783142 C6.26051207 11.94993358 6.85499968 14.23640675 7.44921875 16.5234375 C7.86991113 18.10692617 8.29162146 19.69014473 8.71430969 21.27310181 C9.59861409 24.59511626 10.47456388 27.91917941 11.34399414 31.24511719 C12.45923081 35.51100926 13.58865948 39.7729683 14.72355938 44.03366661 C15.80374458 48.09144604 16.87672017 52.15112102 17.94921875 56.2109375 C18.15505774 56.98760143 18.36089672 57.76426537 18.57297325 58.56446457 C19.15379255 60.76119132 19.72946193 62.95919903 20.3034668 65.15771484 C20.63195114 66.40934418 20.96043549 67.66097351 21.2988739 68.95053101 C22 72 22 72 22 75 C22.94582947 75.1528672 22.94582947 75.1528672 23.9107666 75.30882263 C31.76883818 76.65048024 39.40137103 78.58299388 47.09375 80.66015625 C48.41596093 81.01398273 49.73826918 81.36744573 51.06066895 81.7205658 C53.80776123 82.45504057 56.55408858 83.19228223 59.29980469 83.93188477 C62.81703839 84.87930538 66.33550029 85.82206047 69.85445404 86.76307011 C73.22626473 87.6648535 76.59756243 88.56854657 79.96875 89.47265625 C81.2311853 89.81120132 82.49362061 90.1497464 83.79431152 90.49855042 C84.95982544 90.81235153 86.12533936 91.12615265 87.32617188 91.44946289 C88.35222534 91.72544815 89.37827881 92.00143341 90.4354248 92.28578186 C92.30514918 92.8064884 94.15872216 93.38624072 96 94 C95.67 95.65 95.34 97.3 95 99 C94.11130219 99.1914006 93.22260437 99.38280121 92.30697632 99.58000183 C83.89742999 101.40861524 75.51423555 103.3260595 67.1479702 105.34382153 C62.84607496 106.37805379 58.54205784 107.377225 54.21435547 108.2980957 C36.24469081 111.32850734 36.24469081 111.32850734 20.96368408 120.09707642 C18.11895265 125.07598278 17.70235586 130.29402167 17.32293701 135.92807007 C16.72717317 141.59525811 14.93769716 146.96983405 13.3515625 152.42578125 C12.72744344 154.72569328 12.10896769 157.02714402 11.49609375 159.33007812 C11.18913574 160.47549072 10.88217773 161.62090332 10.56591797 162.80102539 C10.10016357 164.53920532 10.10016357 164.53920532 9.625 166.3125 C8.97801774 168.72204634 8.33088316 171.13155178 7.68359375 173.54101562 C6.12064637 179.36020866 4.55955413 185.17989671 3 191 C1.68 191.33 0.36 191.66 -1 192 C-4.00191336 184.61058471 -5.96380803 176.99543734 -7.9765625 169.2890625 C-8.35059922 167.87027996 -8.72506735 166.45161109 -9.09994507 165.03305054 C-10.07954441 161.3227108 -11.05458887 157.61119147 -12.02825928 153.89929199 C-13.59251623 147.93761226 -15.16215322 141.97735457 -16.73484421 136.01789474 C-17.28252867 133.93886517 -17.82726795 131.85907957 -18.37173462 129.77920532 C-18.7023288 128.52384979 -19.03292297 127.26849426 -19.37353516 125.97509766 C-19.6642691 124.86671539 -19.95500305 123.75833313 -20.25454712 122.61636353 C-20.89934587 120.04713252 -20.89934587 120.04713252 -22 118 C-24.17164225 117.25983216 -26.38073363 116.62910251 -28.59936523 116.04467773 C-29.28880219 115.86067413 -29.97823914 115.67667053 -30.68856812 115.48709106 C-32.97664893 114.87837496 -35.26755531 114.28107239 -37.55859375 113.68359375 C-39.14441394 113.26362942 -40.73002875 112.84288887 -42.31544495 112.42140198 C-46.49680598 111.31171124 -50.68056774 110.21136357 -54.86499023 109.11328125 C-61.56055869 107.35439983 -68.25225703 105.58083998 -74.94426155 103.80845833 C-77.2868323 103.18934504 -79.6303142 102.57378601 -81.97398376 101.95884705 C-83.40641602 101.58125823 -84.83883554 101.20362109 -86.27124023 100.82592773 C-87.52509018 100.4966478 -88.77894012 100.16736786 -90.07078552 99.82810974 C-93 99 -93 99 -95 98 C-95 96.68 -95 95.36 -95 94 C-87.9575949 92.1132236 -80.91516414 90.22654299 -73.8727026 88.33997726 C-70.600914 87.46351301 -67.32913351 86.5870185 -64.05737305 85.71044922 C-62.79256104 85.37158691 -61.52774902 85.03272461 -60.22460938 84.68359375 C-58.9757193 84.34896118 -57.72682922 84.01432861 -56.44009399 83.66955566 C-53.97048408 83.00815525 -51.50073862 82.34726076 -49.03085327 81.68688965 C-44.00112451 80.34192093 -38.97190706 78.99589427 -33.94970703 77.62304688 C-32.88871544 77.33460907 -32.88871544 77.33460907 -31.80628967 77.04034424 C-30.05575225 76.56377032 -28.3062579 76.08336919 -26.55688477 75.60253906 C-24 75 -24 75 -21 75 C-20.79971191 74.11505859 -20.59942383 73.23011719 -20.39306641 72.31835938 C-17.32628447 58.95158348 -13.87459212 45.68490804 -10.39941406 32.41943359 C-9.53393954 29.11375724 -8.67818798 25.80563723 -7.82428551 22.49695587 C-7.00180229 19.31906485 -6.1680981 16.14411824 -5.3359375 12.96875 C-5.0307016 11.78043579 -4.7254657 10.59212158 -4.41098022 9.36779785 C-4.12373077 8.28156128 -3.83648132 7.19532471 -3.54052734 6.07617188 C-3.29056 5.11706909 -3.04059265 4.15796631 -2.78305054 3.1697998 C-2 1 -2 1 0 0 Z " fill="#00BABC" transform="translate(429,438)"/>
<path d="M0 0 C3.0751061 3.13707297 3.65181922 5.63444788 3.9375 10.0625 C3.8741633 13.90492642 3.14847657 16.13249461 0.6875 19.1875 C-2.88765736 22.49498777 -5.22208983 23.70847334 -10.06933594 24.08129883 C-11.21401337 24.17881943 -12.3586908 24.27634003 -13.53805542 24.3768158 C-14.77846588 24.4651619 -16.01887634 24.553508 -17.296875 24.64453125 C-19.29391034 24.8105353 -21.29094357 24.97656755 -23.28787804 25.14378071 C-25.413964 25.31917259 -27.54055336 25.48663633 -29.66741943 25.65228271 C-37.0927575 26.2340375 -44.51129337 26.8949255 -51.9296875 27.55859375 C-52.67480213 27.62491753 -53.41991676 27.6912413 -54.18761063 27.75957489 C-141.57888834 35.58078981 -227.40518817 57.26845122 -379.3125 115.1875 C-380.89466309 115.88963623 -380.89466309 115.88963623 -382.50878906 116.60595703 C-410.99005432 129.3203209 -439.14649157 143.18651648 -466.09716797 158.89794922 C-469.40020896 160.82065833 -472.7201225 162.70910773 -476.0625 164.5625 C-477.02671875 165.10648438 -477.9909375 165.65046875 -478.984375 166.2109375 C-481.3125 167.1875 -481.3125 167.1875 -484.3125 166.1875 C-483.78983456 161.63734861 -483.78983456 161.63734861 -481.69287109 159.66113281 C-480.99758301 159.24186523 -480.30229492 158.82259766 -479.5859375 158.390625 C-478.80943848 157.91173828 -478.03293945 157.43285156 -477.23291016 156.93945312 C-476.3929248 156.44380859 -475.55293945 155.94816406 -474.6875 155.4375 C-473.82302246 154.91091797 -472.95854492 154.38433594 -472.06787109 153.84179688 C-469.49091974 152.27631914 -466.90232497 150.73155242 -464.3125 149.1875 C-463.02484188 148.40300761 -461.73825205 147.61675686 -460.453125 146.828125 C-442.76324316 136.01913172 -424.60797463 125.92895731 -406.3125 116.1875 C-405.73711487 115.8811261 -405.16172974 115.5747522 -404.56890869 115.25909424 C-329.9944801 75.6151967 -250.73465185 45.59928543 -39.625 -0.25 C-38.65295624 -0.38200806 -37.68091248 -0.51401611 -36.67941284 -0.65002441 C-6.05431343 -4.7741823 -6.05431343 -4.7741823 0 0 Z " fill="#00B9BB" transform="translate(1171.3125,119.8125)"/>
<path d="M0 0 C2.82800611 2.15627069 5.07717264 4.58738697 6.08203125 8.00390625 C6.56568281 13.22734306 6.00549402 16.6187121 3.08203125 21.00390625 C-1.53193019 24.62118247 -5.74198657 26.03005445 -11.328125 27.30859375 C-13.0343532 27.72333534 -14.74048478 28.13847457 -16.4465332 28.55395508 C-17.34618805 28.7687149 -18.2458429 28.98347473 -19.17276001 29.20474243 C-68.23705478 40.9856554 -115.80501794 57.58509971 -161.91796875 78.00390625 C-163.56901611 78.73311279 -163.56901611 78.73311279 -165.25341797 79.47705078 C-192.95530935 91.79803723 -220.42611055 105.26309105 -246.57324219 120.62646484 C-248.78796726 121.92753511 -251.01131232 123.2122199 -253.23828125 124.4921875 C-314.00619481 159.54247037 -314.00619481 159.54247037 -367.91796875 204.00390625 C-369.5841399 204.04454457 -371.2518497 204.04662725 -372.91796875 204.00390625 C-373.29993428 199.48907365 -373.29993428 199.48907365 -371.66015625 197.40625 C-371.04398438 196.92285156 -370.4278125 196.43945312 -369.79296875 195.94140625 C-369.05691406 195.34328125 -368.32085938 194.74515625 -367.5625 194.12890625 C-366.68980469 193.42765625 -365.81710937 192.72640625 -364.91796875 192.00390625 C-363.34116257 190.65875367 -361.77650567 189.30017805 -360.21142578 187.94140625 C-319.41806523 152.5909962 -275.33156417 120.58738665 -228.91796875 93.00390625 C-227.96567383 92.43720215 -227.01337891 91.87049805 -226.03222656 91.28662109 C-170.93740381 58.66631458 -112.98811969 32.2027791 -52.41796875 11.50390625 C-51.58381439 11.21830841 -50.74966003 10.93271057 -49.89022827 10.63845825 C-40.67143394 7.49280641 -31.41412704 4.48462284 -22.09765625 1.640625 C-21.27245483 1.38522949 -20.44725342 1.12983398 -19.5970459 0.86669922 C-6.12832904 -3.18273708 -6.12832904 -3.18273708 0 0 Z " fill="#00BABC" transform="translate(1034.91796875,355.99609375)"/>
<path d="M0 0 C59.6588785 0 59.6588785 0 69.46484375 7.44140625 C74.74531285 12.8024932 77.14555486 19.69055412 77.3125 27.0625 C77.23317722 37.22714809 73.75606231 44.11182484 66.75 51.3125 C66.1725 51.869375 65.595 52.42625 65 53 C65.886875 53.4125 66.77375 53.825 67.6875 54.25 C74.23963274 57.71150409 78.24954095 61.64429086 80.58984375 68.8046875 C82.46686851 78.85123908 81.2771716 88.10477319 75.90234375 96.76953125 C69.77752194 104.97056385 61.79116776 106.55220806 52 109 C34.84 109 17.68 109 0 109 C0 73.03 0 37.06 0 0 Z M20 17 C20 26.24 20 35.48 20 45 C26.2184375 45.12375 26.2184375 45.12375 32.5625 45.25 C33.85615479 45.28641602 35.14980957 45.32283203 36.48266602 45.36035156 C43.21898088 45.42516906 47.61007933 45.19216052 53 41 C55.98187222 37.86118714 57.24573691 34.22716443 57.5 29.9375 C56.92385618 25.40036739 56.06512924 23.37950147 53 20 C46.45847044 16.14776593 39.97958938 16.65590828 32.5625 16.8125 C26.3440625 16.9053125 26.3440625 16.9053125 20 17 Z M20 62 C20 71.9 20 81.8 20 92 C25.6615625 92.061875 25.6615625 92.061875 31.4375 92.125 C32.60853271 92.14320801 33.77956543 92.16141602 34.98608398 92.18017578 C42.37018906 92.21891781 49.56650559 92.19159218 55.9375 88.125 C59.4149419 84.54218107 60.31924099 81.59187854 60.4375 76.625 C60.32935094 72.35595799 59.9508008 69.27349921 56.71875 66.1340332 C49.34845835 61.27110639 40.34312915 61.62200924 31.875 61.8125 C27.95625 61.874375 24.0375 61.93625 20 62 Z " fill="#048B8C" transform="translate(527,993)"/>
<path d="M0 0 C0.99 0 1.98 0 3 0 C13.74611679 26.03181837 13.74611679 26.03181837 18.1875 38.0625 C18.47826416 38.8460083 18.76902832 39.6295166 19.06860352 40.43676758 C21 45.74076705 21 45.74076705 21 48 C22.10164238 48.20002121 22.10164238 48.20002121 23.22554016 48.40408325 C25.73711399 48.94353561 27.99028851 49.63559186 30.39135742 50.53466797 C31.22539597 50.84524139 32.05943451 51.15581482 32.91874695 51.47579956 C33.80536514 51.81120758 34.69198334 52.1466156 35.60546875 52.4921875 C36.52588455 52.83879425 37.44630035 53.185401 38.39460754 53.54251099 C40.33444181 54.27505078 42.27344673 55.00979006 44.21166992 55.74658203 C47.18369209 56.87355606 50.1609743 57.98577941 53.13867188 59.09765625 C55.02377898 59.81159899 56.9085564 60.52641299 58.79296875 61.2421875 C59.68565964 61.57354706 60.57835052 61.90490662 61.49809265 62.24630737 C62.32267471 62.56318512 63.14725677 62.88006287 63.99682617 63.20654297 C65.08673103 63.61838333 65.08673103 63.61838333 66.19865417 64.0385437 C68 65 68 65 70 68 C64.35816586 70.91871745 58.6895614 73.4077468 52.7578125 75.671875 C51.90822968 75.99915588 51.05864685 76.32643677 50.18331909 76.66363525 C48.40421318 77.34786109 46.62434544 78.03010907 44.84375 78.71044922 C42.10980026 79.75581183 39.37900233 80.80911299 36.6484375 81.86328125 C34.91424346 82.52911735 33.17987466 83.19449849 31.4453125 83.859375 C30.62765411 84.17493347 29.80999573 84.49049194 28.96755981 84.81561279 C23.23042426 87 23.23042426 87 21 87 C20.65195312 88.2684375 20.30390625 89.536875 19.9453125 90.84375 C17.42565018 99.24065051 14.07813856 107.3465564 10.875 115.5 C10.22231964 117.17174362 9.56997318 118.84361764 8.91796875 120.515625 C8.29717731 122.10428483 7.6760943 123.69283077 7.0546875 125.28125 C6.76302704 126.02701294 6.47136658 126.77277588 6.17086792 127.5411377 C4.11852431 132.76295137 4.11852431 132.76295137 3 135 C2.01 135 1.02 135 0 135 C-2.56821183 128.48737171 -5.13116949 121.97269413 -7.69042969 115.45654297 C-8.56225755 113.23861549 -9.43530127 111.02116556 -10.30957031 108.80419922 C-11.56372527 105.6233096 -12.81354266 102.44074591 -14.0625 99.2578125 C-14.45622803 98.26194122 -14.84995605 97.26606995 -15.25561523 96.24002075 C-15.61598877 95.31921722 -15.9763623 94.3984137 -16.34765625 93.44970703 C-16.66742432 92.6369632 -16.98719238 91.82421936 -17.31665039 90.98684692 C-18 89 -18 89 -18 87 C-18.61410736 86.82490402 -19.22821472 86.64980804 -19.8609314 86.46940613 C-25.80267496 84.73689074 -31.54668777 82.72852463 -37.2890625 80.42578125 C-38.53301285 79.9327375 -38.53301285 79.9327375 -39.80209351 79.42973328 C-42.41129518 78.39454631 -45.01816834 77.35363871 -47.625 76.3125 C-49.41000438 75.60313336 -51.19515941 74.89414566 -52.98046875 74.18554688 C-57.32206319 72.46139923 -61.66158146 70.73212267 -66 69 C-66 68.01 -66 67.02 -66 66 C-39.96818163 55.25388321 -39.96818163 55.25388321 -27.9375 50.8125 C-27.1539917 50.52173584 -26.3704834 50.23097168 -25.56323242 49.93139648 C-20.25923295 48 -20.25923295 48 -18 48 C-17.65195312 46.7315625 -17.30390625 45.463125 -16.9453125 44.15625 C-14.42565018 35.75934949 -11.07813856 27.6534436 -7.875 19.5 C-7.22231964 17.82825638 -6.56997318 16.15638236 -5.91796875 14.484375 C-5.29717731 12.89571517 -4.6760943 11.30716923 -4.0546875 9.71875 C-3.76302704 8.97298706 -3.47136658 8.22722412 -3.17086792 7.4588623 C-1.11852431 2.23704863 -1.11852431 2.23704863 0 0 Z " fill="#00B9BC" transform="translate(719,568)"/>
<path d="M0 0 C11.8460004 8.98455098 16.68131849 19.75401411 19.25 34.25 C21.65302033 52.20828584 20.99445306 73.00165439 10.25 88.3125 C9.19953622 89.56987331 8.11428506 90.79882115 7 92 C6.06414062 93.03253906 6.06414062 93.03253906 5.109375 94.0859375 C-4.16318816 103.32415784 -16.81023665 106.06933039 -29.5625 106.25 C-43.44024786 106.10267784 -55.88466164 102.85664508 -66.3125 93.375 C-78.16398744 80.60065083 -80.3015678 62.62524571 -80.15234375 45.9453125 C-79.58442489 31.23767012 -76.40664455 16.1042914 -66.1171875 4.9609375 C-49.67045768 -10.19585272 -18.75085229 -12.43756129 0 0 Z M-51 18 C-60.52718646 30.04908876 -59.99009939 46.43139466 -59 61 C-57.73601879 69.53976148 -54.43966871 76.71320545 -48.1875 82.6875 C-39.93049815 88.67787389 -31.89934937 89.02609248 -22 88 C-15.10125885 86.01252656 -9.76474191 82.12508167 -6 76 C0.68686212 62.26075596 1.54620881 44.17711648 -2.625 29.5 C-5.52290847 21.8368688 -9.65226249 15.8987995 -17 12 C-28.09526495 7.64891571 -42.42468916 9.16483126 -51 18 Z " fill="#048B8C" transform="translate(436,998)"/>
<path d="M0 0 C10.67729788 8.25275862 14.74478715 21.95292042 16.4140625 34.8203125 C18.40489677 52.78237669 16.93867549 72.18392013 6.26953125 87.2890625 C-1.0822007 96.34574157 -11.48098397 101.95774542 -23.06640625 103.484375 C-38.99539119 104.67080974 -53.14231307 102.78457633 -66.6484375 93.8828125 C-78.85142987 82.01879214 -82.78166485 66.16176045 -83.25170898 49.60913086 C-83.4042153 32.66722177 -80.89609676 15.47697722 -68.8984375 2.6953125 C-50.96424903 -14.45912864 -19.64347558 -13.49983712 0 0 Z M-54.14453125 15.5625 C-62.23795082 25.40438661 -63.79106022 39.34736492 -62.8984375 51.6953125 C-61.92299297 61.5473023 -60.31510283 72.48466565 -52.8984375 79.6953125 C-44.17249354 86.02342475 -36.4858564 86.29839332 -25.8984375 85.6953125 C-19.18589181 84.465374 -13.60920929 80.50081905 -9.6796875 74.984375 C-2.03436947 61.25755398 -1.83548659 42.49371026 -5.859375 27.6015625 C-8.61081712 19.90579956 -12.44979061 13.46074327 -19.8984375 9.6953125 C-31.32025433 5.0826557 -45.20189403 6.92698366 -54.14453125 15.5625 Z " fill="#048B8C" transform="translate(1624.8984375,1000.3046875)"/>
<path d="M0 0 C51.66315789 0 51.66315789 0 62 6 C62.62261719 6.33644531 63.24523438 6.67289063 63.88671875 7.01953125 C70.46016922 11.05485984 73.74592449 17.6367975 76.375 24.6875 C78.48600805 35.416644 78.08159468 47.14695214 72.41796875 56.65625 C69.31558745 61.25237044 65.94230583 65.10014978 62 69 C62.57556641 70.13542236 63.15113281 71.27084473 63.74414062 72.44067383 C65.87471543 76.64758887 67.99738796 80.85844887 70.11767578 85.07055664 C71.03706686 86.89423753 71.95860748 88.71683637 72.88232422 90.53833008 C74.20844903 93.15425726 75.52683562 95.7739578 76.84375 98.39453125 C77.25935181 99.21025101 77.67495361 100.02597076 78.10314941 100.8664093 C78.4835437 101.62697128 78.86393799 102.38753326 79.25585938 103.17114258 C79.59339233 103.83954666 79.93092529 104.50795074 80.27868652 105.1966095 C81 107 81 107 81 110 C73.74 110 66.48 110 59 110 C54.45418624 101.65223292 50.08559375 93.27043938 46 84.6875 C45.60240479 83.85758545 45.20480957 83.0276709 44.79516602 82.17260742 C44.42963623 81.39763916 44.06410645 80.6226709 43.6875 79.82421875 C43.19830078 78.78914185 43.19830078 78.78914185 42.69921875 77.7331543 C42 76 42 76 42 74 C34.74 74 27.48 74 20 74 C20 85.88 20 97.76 20 110 C13.4 110 6.8 110 0 110 C0 73.7 0 37.4 0 0 Z M20 18 C20 30.54 20 43.08 20 56 C25.6925 56.1546875 25.6925 56.1546875 31.5 56.3125 C33.27020508 56.38078003 33.27020508 56.38078003 35.07617188 56.45043945 C41.97039732 56.54063231 46.77669244 55.70204733 52 51 C56.16109088 46.00905562 57.22207679 40.42003819 57 34 C56.02760355 27.7133439 52.71439461 24.31935461 47.9375 20.34765625 C44.53929967 17.98398868 41.691196 17.88015914 37.67578125 17.90234375 C36.28613159 17.90609009 36.28613159 17.90609009 34.8684082 17.90991211 C33.10823364 17.92356812 33.10823364 17.92356812 31.3125 17.9375 C25.7128125 17.9684375 25.7128125 17.9684375 20 18 Z " fill="#048B8C" transform="translate(961,992)"/>
<path d="M0 0 C51.66315789 0 51.66315789 0 62 6 C62.62261719 6.33644531 63.24523438 6.67289063 63.88671875 7.01953125 C70.27530809 10.94137676 73.74052778 17.36343516 76.14453125 24.3046875 C78.55691365 34.72529825 78.22131826 46.51638112 73 56 C69.78609632 60.82458395 66.10237792 64.92360664 62 69 C62.57556641 70.13542236 63.15113281 71.27084473 63.74414062 72.44067383 C65.87471543 76.64758887 67.99738796 80.85844887 70.11767578 85.07055664 C71.03706686 86.89423753 71.95860748 88.71683637 72.88232422 90.53833008 C74.20844903 93.15425726 75.52683562 95.7739578 76.84375 98.39453125 C77.25935181 99.21025101 77.67495361 100.02597076 78.10314941 100.8664093 C78.4835437 101.62697128 78.86393799 102.38753326 79.25585938 103.17114258 C79.59339233 103.83954666 79.93092529 104.50795074 80.27868652 105.1966095 C81 107 81 107 81 110 C73.74 110 66.48 110 59 110 C55.5625 103.125 55.5625 103.125 54.40454102 100.8046875 C52.43715149 96.86335205 50.45868452 92.92802693 48.46484375 89 C48.05355225 88.18644043 47.64226074 87.37288086 47.21850586 86.53466797 C46.41391158 84.94353482 45.60619019 83.35397865 44.79516602 81.76611328 C42 76.22506784 42 76.22506784 42 74 C34.74 74 27.48 74 20 74 C20 85.88 20 97.76 20 110 C13.4 110 6.8 110 0 110 C0 73.7 0 37.4 0 0 Z M20 18 C20 30.54 20 43.08 20 56 C23.815625 56.0825 27.63125 56.165 31.5625 56.25 C32.75174072 56.28641602 33.94098145 56.32283203 35.16625977 56.36035156 C41.69211686 56.4284723 45.77068372 56.02579934 51 52 C52.77594534 50.09578804 52.77594534 50.09578804 53.875 48 C54.26429687 47.34 54.65359375 46.68 55.0546875 46 C57.30819004 41.23225909 57.98883404 36.07968192 56.3515625 30.98046875 C54.02496699 25.78042836 50.72645272 22.16924556 46 19 C42.94080612 17.98026871 40.87581975 17.88466398 37.67578125 17.90234375 C36.28613159 17.90609009 36.28613159 17.90609009 34.8684082 17.90991211 C33.10823364 17.92356812 33.10823364 17.92356812 31.3125 17.9375 C25.7128125 17.9684375 25.7128125 17.9684375 20 18 Z " fill="#048B8C" transform="translate(1713,992)"/>
<path d="M0 0 C11.55 0 23.1 0 35 0 C35 49.83 35 99.66 35 151 C23.45 151 11.9 151 0 151 C0 101.17 0 51.34 0 0 Z " fill="#313333" transform="translate(1722,786)"/>
<path d="M0 0 C8.91 0 17.82 0 27 0 C29.72019218 6.80048045 32.28637407 13.54383334 34.6171875 20.47265625 C34.95126114 21.45824524 35.28533478 22.44383423 35.62953186 23.45928955 C36.34396992 25.56804594 37.057181 27.67721837 37.76925659 29.78677368 C38.88869724 33.1030776 40.0113875 36.41826502 41.13500977 39.7331543 C42.67151031 44.26644756 44.20698592 48.80008576 45.74169922 53.33398438 C48.82554843 62.44077283 51.92282288 71.54296889 55.02716064 80.64279175 C55.92212169 83.26740076 56.81535078 85.89259491 57.70849609 88.51782227 C58.25217719 90.11217653 58.79595406 91.70649813 59.33984375 93.30078125 C59.5817897 94.01308899 59.82373566 94.72539673 60.07301331 95.45928955 C61.0291053 98.25661999 62.00493117 101.01154805 63.16625977 103.73120117 C64 106 64 106 64 110 C57.07 110 50.14 110 43 110 C41.82970578 106.54285535 40.66361387 103.08439258 39.5 99.625 C39.16613281 98.64015625 38.83226562 97.6553125 38.48828125 96.640625 C38.17246094 95.69960937 37.85664062 94.75859375 37.53125 93.7890625 C37.23798828 92.91975098 36.94472656 92.05043945 36.64257812 91.15478516 C36 89 36 89 36 87 C21.15 87 6.3 87 -9 87 C-9.66 89.97 -10.32 92.94 -11 96 C-11.65744148 98.34198023 -12.34193709 100.67666408 -13.0625 103 C-13.40410156 104.11375 -13.74570313 105.2275 -14.09765625 106.375 C-15 109 -15 109 -16 110 C-17.56172745 110.08685603 -19.12729344 110.10702219 -20.69140625 110.09765625 C-21.63564453 110.09443359 -22.57988281 110.09121094 -23.55273438 110.08789062 C-24.54595703 110.07951172 -25.53917969 110.07113281 -26.5625 110.0625 C-27.55958984 110.05798828 -28.55667969 110.05347656 -29.58398438 110.04882812 C-32.05605138 110.03700005 -34.52798665 110.01967958 -37 110 C-34.42766918 99.67024679 -30.94716833 89.64548141 -27.5390625 79.5703125 C-26.9049432 77.68910278 -26.27102556 75.80782507 -25.63729858 73.92648315 C-24.31297607 69.99733375 -22.98641593 66.06894925 -21.65820312 62.14111328 C-19.96758092 57.14104757 -18.28226717 52.13921226 -16.59861183 47.13679695 C-15.29142558 43.25474329 -13.98153602 39.3736059 -12.67084885 35.492733 C-12.04898012 33.65046521 -11.42788925 31.80793463 -10.80763626 29.96512222 C-7.41279443 19.88444808 -3.90591848 9.89639971 0 0 Z M13 17 C11.38051927 21.83330098 9.76320543 26.66732027 8.14770508 31.50195312 C7.60041629 33.13886014 7.05258457 34.77558576 6.50415039 36.41210938 C5.70568284 38.79507028 4.90932035 41.17872691 4.11328125 43.5625 C3.87660233 44.26737549 3.6399234 44.97225098 3.39607239 45.69848633 C0.8174141 53.43364921 -1.56629585 61.21214671 -4 69 C7.22 69 18.44 69 30 69 C28.4664884 61.90813673 28.4664884 61.90813673 26.48779297 55.03100586 C26.2076535 54.1707933 25.92751404 53.31058075 25.6388855 52.42430115 C25.34297516 51.53018021 25.04706482 50.63605927 24.7421875 49.71484375 C24.43427277 48.77314835 24.12635803 47.83145294 23.80911255 46.86122131 C22.83505379 43.88532571 21.85513124 40.91140042 20.875 37.9375 C20.20924523 35.90702894 19.54387686 33.87643113 18.87890625 31.84570312 C17.25706747 26.89566175 15.63042386 21.94721986 14 17 C13.67 17 13.34 17 13 17 Z " fill="#048B8C" transform="translate(1281,992)"/>
<path d="M0 0 C0.69294159 -0.00014603 1.38588318 -0.00029205 2.099823 -0.0004425 C4.38860207 0.00025376 6.67729961 0.00803279 8.96606445 0.01586914 C10.55361385 0.01773434 12.14116381 0.01915776 13.72871399 0.02015686 C17.9060729 0.02397405 22.08339702 0.03379753 26.26074219 0.04486084 C30.52383961 0.05509211 34.78694266 0.05965816 39.05004883 0.06469727 C47.41399886 0.07542051 55.77791395 0.09301086 64.1418457 0.11352539 C64.1418457 6.05352539 64.1418457 11.99352539 64.1418457 18.11352539 C46.3218457 18.11352539 28.5018457 18.11352539 10.1418457 18.11352539 C10.1418457 27.35352539 10.1418457 36.59352539 10.1418457 46.11352539 C25.6518457 46.11352539 41.1618457 46.11352539 57.1418457 46.11352539 C57.1418457 51.72352539 57.1418457 57.33352539 57.1418457 63.11352539 C41.6318457 63.11352539 26.1218457 63.11352539 10.1418457 63.11352539 C10.1418457 73.01352539 10.1418457 82.91352539 10.1418457 93.11352539 C27.9618457 93.11352539 45.7818457 93.11352539 64.1418457 93.11352539 C64.1418457 98.72352539 64.1418457 104.33352539 64.1418457 110.11352539 C39.7218457 110.11352539 15.3018457 110.11352539 -9.8581543 110.11352539 C-9.8581543 74.14352539 -9.8581543 38.17352539 -9.8581543 1.11352539 C-6.37708915 -0.04682966 -3.673431 -0.00650165 0 0 Z " fill="#048A8B" transform="translate(826.858154296875,991.886474609375)"/>
<path d="M0 0 C8.32298753 6.09662073 14.02991924 13.34931829 16.63671875 23.47265625 C18.34258156 35.34032545 16.84114074 46.01817853 9.7890625 55.83203125 C2.78822902 64.31557401 -5.12171101 69.20096303 -16 71 C-27.785024 71.94135368 -37.47144865 69.00191641 -47 62 C-54.63219098 55.18614022 -59.15956492 45.11523653 -60 35 C-60.11745775 23.92960708 -57.20806107 14.66189659 -50.10546875 6.10546875 C-36.82173897 -7.17826103 -15.96081906 -10.39378013 0 0 Z " fill="#00BABC" transform="translate(656,434)"/>
<path d="M0 0 C1.24716797 -0.00128906 2.49433594 -0.00257813 3.77929688 -0.00390625 C5.07544922 -0.00003906 6.37160156 0.00382813 7.70703125 0.0078125 C9.62225586 0.00201172 9.62225586 0.00201172 11.57617188 -0.00390625 C30.2845686 0.01533118 30.2845686 0.01533118 34.51953125 2.1328125 C34.51953125 7.7428125 34.51953125 13.3528125 34.51953125 19.1328125 C31.90015625 18.9678125 29.28078125 18.8028125 26.58203125 18.6328125 C6.24334428 16.38113947 6.24334428 16.38113947 -11.98046875 23.1953125 C-14.91607946 26.987143 -14.92885757 30.47853655 -14.48046875 35.1328125 C-13.51714655 38.16039656 -12.48931249 39.50462045 -9.79296875 41.18359375 C-3.81152388 43.950012 2.45640161 44.89511233 8.89453125 46.0078125 C18.33879633 47.66631355 27.69087111 49.69251714 34.58203125 56.9453125 C40.56588154 66.78971137 41.11121923 78.22174426 38.86328125 89.39453125 C36.1259835 97.85419715 31.41850079 103.87826003 23.51953125 108.0078125 C17.04612432 111.05286905 10.57892637 112.49858385 3.45703125 112.8828125 C2.69551758 112.92519043 1.93400391 112.96756836 1.14941406 113.01123047 C-10.75803878 113.49202557 -22.74944619 112.08798293 -34.48046875 110.1328125 C-34.48046875 104.1928125 -34.48046875 98.2528125 -34.48046875 92.1328125 C-23.30059454 93.02212068 -23.30059454 93.02212068 -18.66015625 93.6484375 C-8.47460497 94.94294264 5.9052829 96.71800878 14.51953125 90.1328125 C17.49392128 86.51488689 18.38634197 83.09843475 19.01953125 78.5078125 C18.39367975 74.28331488 17.39751629 72.29859604 14.51953125 69.1328125 C6.97367071 65.72584775 -0.98017749 64.61430525 -9.10546875 63.29101562 C-17.8518753 61.70027623 -25.8513282 58.86343822 -31.48046875 51.6328125 C-37.39712872 42.75782255 -36.74896328 30.0712222 -34.8984375 19.94921875 C-32.65074017 13.37034209 -28.22661364 8.90835232 -22.48046875 5.1328125 C-15.16378092 1.67965614 -8.07565554 0.0080959 0 0 Z " fill="#048B8C" transform="translate(708.48046875,990.8671875)"/>
<path d="M0 0 C7.26 0 14.52 0 22 0 C25.60351562 11.2109375 29.20703125 22.421875 32.81054688 33.6328125 C33.39746811 35.45830627 33.39746811 35.45830627 33.99624634 37.32067871 C34.78930207 39.78861548 35.58159666 42.25679697 36.37313843 44.72521973 C38.21971174 50.48066281 40.07257586 56.23375396 41.95456219 61.97771072 C42.59577684 63.93571083 43.2346522 65.89445888 43.87281799 67.85345459 C44.67252868 70.30573731 45.47680079 72.75653853 46.28623962 75.20562744 C46.64303299 76.30276062 46.99982635 77.3998938 47.36743164 78.53027344 C47.68361954 79.49302185 47.99980743 80.45577026 48.32557678 81.44769287 C49 84 49 84 49 88 C49.99 88 50.98 88 52 88 C52.23340088 86.83718506 52.46680176 85.67437012 52.70727539 84.47631836 C54.29878086 77.33257668 56.53620341 70.37012494 58.68359375 63.37890625 C59.14467771 61.86882147 59.60545193 60.35864208 60.06593323 58.84837341 C61.2733898 54.89103952 62.48486527 50.93494761 63.69726562 46.97912598 C64.92354355 42.9757249 66.14626153 38.97123721 67.36914062 34.96679688 C68.74810661 30.45158313 70.12737516 25.93646517 71.5096283 21.42225647 C71.72133163 20.73062912 71.93303497 20.03900177 72.15115356 19.32641602 C72.71904945 17.47137814 73.28723903 15.61643018 73.85545349 13.76148987 C75.25003266 9.17828127 76.62340711 4.58864295 78 0 C85.26 0 92.52 0 100 0 C97.60599412 9.16506746 94.74077387 18.13866034 91.7734375 27.12890625 C91.26101572 28.68751574 90.74878226 30.24618715 90.23672485 31.80491638 C89.16429838 35.06738595 88.08995801 38.32921681 87.01416016 41.59057617 C85.66301238 45.68700874 84.31607436 49.78480973 82.97047043 53.88306618 C76.80768613 72.64750084 70.51779046 91.35529332 64 110 C54.76 110 45.52 110 36 110 C35.12263184 107.36265869 34.24526367 104.72531738 33.34130859 102.00805664 C30.4210572 93.23062828 27.49909838 84.45376898 24.57633018 75.67717838 C22.80675323 70.36326002 21.0377269 65.04915975 19.27001953 59.73461914 C17.55960363 54.59239405 15.84766228 49.45067901 14.13472366 44.30929375 C13.48603143 42.36138926 12.83786134 40.4133108 12.19025803 38.46504402 C11.27330052 35.70676299 10.35474187 32.94902371 9.43505859 30.19165039 C9.14648672 29.32589417 8.85791485 28.46013796 8.56059837 27.56814671 C6.38922123 21.08569615 4.12812994 14.6374269 1.76926231 8.22069645 C0.72544527 5.33210252 0 3.09882778 0 0 Z " fill="#048B8C" transform="translate(1098,992)"/>
<path d="M0 0 C8.24547991 6.97340773 11.63191702 15.42915136 13.48046875 25.9296875 C14.08424614 35.1421618 9.99332841 44.98463115 4.078125 51.84375 C-3.17675564 58.94091585 -11.73383573 62.77057467 -21.8984375 63.15234375 C-31.94782489 62.77490197 -40.31204725 58.96559483 -47.65234375 52.1484375 C-54.86086623 44.36178791 -57.23548106 35.30732405 -57.109375 24.94140625 C-56.42584357 14.68843485 -52.00641837 7.41410094 -44.5859375 0.52734375 C-31.44778689 -10.1637899 -13.496423 -9.75271556 0 0 Z " fill="#00BABC" transform="translate(567.8984375,625.22265625)"/>
<path d="M0 0 C7.59 0 15.18 0 23 0 C26.26083591 6.61855358 29.51929183 13.23817004 32.77172852 19.86083984 C33.8790597 22.11380357 34.98777606 24.36608704 36.09790039 26.61767578 C37.6926081 29.85271538 39.28233106 33.09016244 40.87109375 36.328125 C41.36902939 37.33554749 41.86696503 38.34296997 42.37998962 39.38092041 C42.84039139 40.32159363 43.30079315 41.26226685 43.77514648 42.23144531 C44.1815184 43.05751282 44.58789032 43.88358032 45.00657654 44.73468018 C45.92199833 46.82213151 46.52819828 48.77532177 47 51 C47.66 51 48.32 51 49 51 C49.16535248 50.46120712 49.33070496 49.92241425 49.50106812 49.36729431 C51.37485218 43.48491885 53.7322541 37.99595877 56.4140625 32.44140625 C56.82917084 31.57104233 57.24427917 30.70067841 57.67196655 29.80393982 C58.98473398 27.05441297 60.30474851 24.30843973 61.625 21.5625 C62.51870767 19.69358812 63.41194128 17.82444947 64.3046875 15.95507812 C70.42246825 3.15506351 70.42246825 3.15506351 72 0 C79.26 0 86.52 0 94 0 C93.15595833 4.22020835 92.35721291 6.60465757 90.41015625 10.2890625 C89.8783374 11.30307129 89.34651855 12.31708008 88.79858398 13.36181641 C87.93922241 14.97709229 87.93922241 14.97709229 87.0625 16.625 C86.17896851 18.30408447 86.17896851 18.30408447 85.27758789 20.01708984 C83.52387157 23.34765317 81.76233422 26.67399097 80 30 C79.1111817 31.6870801 78.22307732 33.37453667 77.3359375 35.0625 C76.9342334 35.82393311 76.5325293 36.58536621 76.11865234 37.36987305 C75.32372446 38.88759707 74.5377306 40.41003036 73.76025391 41.93676758 C71.62041632 46.1043477 69.34512249 50.04668204 66.75 53.94921875 C55.47134817 71.75249228 56.44793915 89.60559815 57 110 C50.4 110 43.8 110 37 110 C37.13535156 106.24689453 37.13535156 106.24689453 37.2734375 102.41796875 C37.76269116 80.752366 35.82461598 65.87501346 23.98583984 47.234375 C20.51990718 41.58934477 17.61241241 35.6567159 14.625 29.75 C10.26079681 21.29174994 5.82882016 12.87564853 1.2578125 4.52734375 C0 2 0 2 0 0 Z " fill="#048B8C" transform="translate(1848,992)"/>
<path d="M0 0 C30.36 0 60.72 0 92 0 C92 5.94 92 11.88 92 18 C80.12 18 68.24 18 56 18 C56 48.36 56 78.72 56 110 C49.4 110 42.8 110 36 110 C36 79.64 36 49.28 36 18 C24.12 18 12.24 18 0 18 C0 12.06 0 6.12 0 0 Z " fill="#048A8B" transform="translate(1390,992)"/>
<path d="M0 0 C6.48805974 5.29768845 10.86814726 12.01152638 12.48828125 20.3046875 C13.52306827 30.77130376 10.98212288 40.27086855 4.33203125 48.515625 C-3.31267279 55.93357934 -11.12440195 57.60901093 -21.36914062 57.61938477 C-30.52889989 57.4439542 -36.19872811 54.24252072 -42.7890625 48.09765625 C-49.32903232 41.29074889 -51.36176082 33.52028367 -51.51171875 24.3046875 C-50.91059093 15.70188046 -47.54449871 8.33746746 -41.43359375 2.2265625 C-29.32046536 -7.85359329 -13.22816391 -8.92849632 0 0 Z " fill="#00B9BB" transform="translate(1927.51171875,397.6953125)"/>
<path d="M0 0 C5.31058509 3.78193069 9.09342305 9.14026367 10.5625 15.55078125 C11.61106133 22.49298038 10.68945456 28.46679417 7.40234375 34.67578125 C2.07697718 41.15257844 -3.5991003 45.67830615 -12.1015625 46.76953125 C-19.22582112 47.06689161 -25.21692767 45.2492384 -31.16015625 41.36328125 C-36.52043162 35.759357 -39.54654427 29.63345785 -40.22265625 21.92578125 C-40.07494831 15.3158508 -38.17178931 9.13615146 -33.8515625 4.078125 C-24.2360717 -4.8563361 -11.58677667 -6.66662191 0 0 Z " fill="#00BABC" transform="translate(565.91015625,365.51171875)"/>
<path d="M0 0 C6.93 0 13.86 0 21 0 C21 7.92 21 15.84 21 24 C14.07 24 7.14 24 0 24 C0 16.08 0 8.16 0 0 Z " fill="#313232" transform="translate(1162,913)"/>
</svg>
