<?xml version="1.0" encoding="UTF-8"?>
<svg version="1.1" xmlns="http://www.w3.org/2000/svg" width="600" height="389">
<path d="M0 0 C0.80926437 -0.00570007 1.61852875 -0.01140015 2.45231628 -0.01727295 C4.16082477 -0.02666774 5.86935093 -0.03323479 7.57788086 -0.03710938 C10.12323078 -0.04670632 12.66773324 -0.07773664 15.21289062 -0.109375 C30.53596631 -0.20909979 45.45136085 1.68885527 60.23046875 5.828125 C61.13482666 6.07900879 62.03918457 6.32989258 62.97094727 6.58837891 C73.1557277 9.54419754 82.78900342 13.65820641 92.35546875 18.203125 C93.04721191 18.53038574 93.73895508 18.85764648 94.45166016 19.19482422 C129.4627857 36.06628592 161.9457901 67.78223327 178.35546875 103.203125 C178.35546875 103.863125 178.35546875 104.523125 178.35546875 105.203125 C222.57546875 105.203125 266.79546875 105.203125 312.35546875 105.203125 C312.35546875 110.483125 312.35546875 115.763125 312.35546875 121.203125 C292.88546875 121.203125 273.41546875 121.203125 253.35546875 121.203125 C253.50457727 139.9521866 253.50457727 139.9521866 253.66210938 158.70117188 C253.7282724 166.35341561 253.79347065 174.00565869 253.8527832 181.65795898 C253.90068975 187.83067769 253.95304008 194.00334448 254.0084095 200.1760006 C254.02871455 202.52536404 254.04744624 204.87474165 254.06454277 207.22413063 C254.08885125 210.52683222 254.1188667 213.82943813 254.15014648 217.13208008 C254.15590195 218.09306107 254.16165741 219.05404205 254.16758728 220.04414368 C254.2368744 226.52377221 254.76451508 232.70263458 255.35546875 239.203125 C245.78546875 239.203125 236.21546875 239.203125 226.35546875 239.203125 C226.35546875 200.263125 226.35546875 161.323125 226.35546875 121.203125 C213.15546875 121.203125 199.95546875 121.203125 186.35546875 121.203125 C188.00546875 125.823125 189.65546875 130.443125 191.35546875 135.203125 C192.28787619 138.26921612 193.18065029 141.29394569 193.98046875 144.390625 C194.18575195 145.18033691 194.39103516 145.97004883 194.60253906 146.78369141 C205.9346776 191.92486375 200.79433672 240.43633573 180.35546875 282.203125 C180.00613281 282.92097168 179.65679687 283.63881836 179.296875 284.37841797 C162.17137277 319.13911 134.4099798 348.6174427 100.35546875 367.203125 C99.41501709 367.71866943 99.41501709 367.71866943 98.45556641 368.24462891 C75.51254398 380.65051086 49.15091129 389.20195632 22.94140625 389.44140625 C22.05740646 389.4512001 21.17340668 389.46099396 20.26261902 389.47108459 C-15.95479901 389.79009596 -15.95479901 389.79009596 -32.64453125 385.203125 C-33.89484131 384.88166504 -33.89484131 384.88166504 -35.17041016 384.55371094 C-47.55919875 381.34136983 -59.1572097 376.81896948 -70.64453125 371.203125 C-71.62413818 370.72770264 -71.62413818 370.72770264 -72.62353516 370.24267578 C-118.56901919 347.65056803 -152.01161267 305.94146581 -168.39453125 257.953125 C-172.17812817 246.54096138 -174.97341911 235.10979901 -176.64453125 223.203125 C-176.81815186 221.97553467 -176.99177246 220.74794434 -177.1706543 219.4831543 C-177.71154962 215.08438483 -177.83975276 210.72530413 -177.8828125 206.296875 C-177.89260635 205.4628717 -177.90240021 204.62886841 -177.91249084 203.76959229 C-178.08199242 185.58999411 -178.02463197 167.96353338 -173.64453125 150.203125 C-173.43022461 149.31367188 -173.21591797 148.42421875 -172.99511719 147.5078125 C-164.29465004 112.35133973 -146.9638405 81.71126328 -121.97851562 55.60009766 C-120.84094452 54.40881254 -119.71774901 53.20382736 -118.59765625 51.99609375 C-89.18386332 21.13675117 -42.52639053 0.24027657 0 0 Z " fill="#2D3235" transform="translate(177.64453125,-0.203125)"/>
<path d="M0 0 C0.69370697 -0.00201416 1.38741394 -0.00402832 2.10214233 -0.00610352 C40.68784841 0.06890908 71.51787568 17.67417773 98.53515625 43.9921875 C99.8125 45.5 99.8125 45.5 100.8125 48.5 C99.71891174 48.48889694 98.62532349 48.47779388 97.49859619 48.46635437 C87.19863314 48.36504904 76.89877099 48.29006854 66.598423 48.24093914 C61.30270901 48.21483202 56.0073968 48.17941328 50.71191406 48.12280273 C45.60257767 48.06852324 40.49362801 48.03858786 35.38402557 48.02561378 C33.43350891 48.01636663 31.4830137 47.99830908 29.53266144 47.97134972 C26.80288258 47.93511312 24.07470677 47.93005234 21.34472656 47.93237305 C20.13200073 47.90540848 20.13200073 47.90540848 18.89477539 47.87789917 C14.98808442 47.91389642 13.22322798 48.10968362 10.34173584 50.84797668 C7.74547626 55.35044829 7.688645 59.1327919 7.75 64.1875 C7.75676758 65.2403418 7.75676758 65.2403418 7.76367188 66.31445312 C7.77543073 68.04300538 7.79336546 69.77151365 7.8125 71.5 C12.69024083 70.4271722 12.69024083 70.4271722 16.625 67.625 C22.91268605 61.51696213 32.52376064 60.37160082 40.89770508 60.38647461 C41.93755554 60.38625557 41.93755554 60.38625557 42.99841309 60.3860321 C45.27631829 60.38672549 47.55414043 60.39449085 49.83203125 60.40234375 C51.41672216 60.40420997 53.00141365 60.40563291 54.58610535 60.40663147 C58.7469951 60.41044057 62.90784968 60.42025708 67.06872559 60.43133545 C71.31859868 60.44158418 75.56847748 60.4461365 79.81835938 60.45117188 C88.14975569 60.46188084 96.48112346 60.47893789 104.8125 60.5 C104.8125 61.16 104.8125 61.82 104.8125 62.5 C103.16015625 63.875 103.16015625 63.875 100.875 65.5 C95.46431033 69.58562281 91.20975019 74.36851509 86.8125 79.5 C85.70902221 80.75060817 84.6048928 82.0006418 83.5 83.25 C81.33800541 85.72728547 79.19550316 88.22042388 77.0625 90.72265625 C71.48275027 97.26549102 65.84325869 103.72443702 60.03515625 110.06640625 C55.95200243 114.537065 51.99407621 119.11141889 48.06640625 123.71875 C42.48493614 130.26251142 36.84449262 136.72308967 31.03515625 143.06640625 C25.77199748 148.82905636 20.71089496 154.76876867 15.625 160.6875 C14.85760498 161.57949097 14.85760498 161.57949097 14.07470703 162.48950195 C11.87985617 165.04944332 9.72532393 167.61156648 7.6484375 170.26953125 C6.05455985 172.20592303 4.64095016 173.54893048 2.625 175 C-0.69967834 177.44961346 -0.69967834 177.44961346 -1.1875 182.5 C40.7225 182.5 82.6325 182.5 125.8125 182.5 C123.8070705 188.51628851 121.85785841 193.87579536 119 199.4375 C118.64599121 200.13206299 118.29198242 200.82662598 117.92724609 201.54223633 C100.0889315 236.2144014 71.556794 259.20670379 34.69287109 271.18896484 C23.67645329 274.54156357 12.55352666 274.88370472 1.125 274.9375 C0.43606659 274.94385468 -0.25286682 274.95020935 -0.962677 274.95675659 C-36.82341933 275.16235868 -68.2919736 260.18818007 -93.6875 235.375 C-119.21383219 209.71310977 -132.64061464 173.94712703 -132.625 138 C-132.07888755 98.82928858 -118.59597807 65.54403699 -91.1875 37.5 C-90.58679688 36.83742187 -89.98609375 36.17484375 -89.3671875 35.4921875 C-67.18253589 11.52384531 -31.72978081 0.0647129 0 0 Z " fill="#000000" transform="translate(188.1875,56.5)"/>
<path d="M0 0 C0.80926437 -0.00570007 1.61852875 -0.01140015 2.45231628 -0.01727295 C4.16082477 -0.02666774 5.86935093 -0.03323479 7.57788086 -0.03710938 C10.12323078 -0.04670632 12.66773324 -0.07773664 15.21289062 -0.109375 C30.53596631 -0.20909979 45.45136085 1.68885527 60.23046875 5.828125 C61.13482666 6.07900879 62.03918457 6.32989258 62.97094727 6.58837891 C73.1557277 9.54419754 82.78900342 13.65820641 92.35546875 18.203125 C93.04721191 18.53038574 93.73895508 18.85764648 94.45166016 19.19482422 C129.4627857 36.06628592 161.9457901 67.78223327 178.35546875 103.203125 C178.35546875 103.863125 178.35546875 104.523125 178.35546875 105.203125 C222.57546875 105.203125 266.79546875 105.203125 312.35546875 105.203125 C312.35546875 110.483125 312.35546875 115.763125 312.35546875 121.203125 C292.88546875 121.203125 273.41546875 121.203125 253.35546875 121.203125 C253.50457727 139.9521866 253.50457727 139.9521866 253.66210938 158.70117188 C253.7282724 166.35341561 253.79347065 174.00565869 253.8527832 181.65795898 C253.90068975 187.83067769 253.95304008 194.00334448 254.0084095 200.1760006 C254.02871455 202.52536404 254.04744624 204.87474165 254.06454277 207.22413063 C254.08885125 210.52683222 254.1188667 213.82943813 254.15014648 217.13208008 C254.15590195 218.09306107 254.16165741 219.05404205 254.16758728 220.04414368 C254.2368744 226.52377221 254.76451508 232.70263458 255.35546875 239.203125 C245.78546875 239.203125 236.21546875 239.203125 226.35546875 239.203125 C226.35546875 200.263125 226.35546875 161.323125 226.35546875 121.203125 C213.15546875 121.203125 199.95546875 121.203125 186.35546875 121.203125 C188.00546875 125.823125 189.65546875 130.443125 191.35546875 135.203125 C192.28787619 138.26921612 193.18065029 141.29394569 193.98046875 144.390625 C194.18575195 145.18033691 194.39103516 145.97004883 194.60253906 146.78369141 C205.9346776 191.92486375 200.79433672 240.43633573 180.35546875 282.203125 C180.00613281 282.92097168 179.65679687 283.63881836 179.296875 284.37841797 C162.17137277 319.13911 134.4099798 348.6174427 100.35546875 367.203125 C99.41501709 367.71866943 99.41501709 367.71866943 98.45556641 368.24462891 C75.51254398 380.65051086 49.15091129 389.20195632 22.94140625 389.44140625 C22.05740646 389.4512001 21.17340668 389.46099396 20.26261902 389.47108459 C-15.95479901 389.79009596 -15.95479901 389.79009596 -32.64453125 385.203125 C-33.89484131 384.88166504 -33.89484131 384.88166504 -35.17041016 384.55371094 C-47.55919875 381.34136983 -59.1572097 376.81896948 -70.64453125 371.203125 C-71.62413818 370.72770264 -71.62413818 370.72770264 -72.62353516 370.24267578 C-118.56901919 347.65056803 -152.01161267 305.94146581 -168.39453125 257.953125 C-172.17812817 246.54096138 -174.97341911 235.10979901 -176.64453125 223.203125 C-176.81815186 221.97553467 -176.99177246 220.74794434 -177.1706543 219.4831543 C-177.71154962 215.08438483 -177.83975276 210.72530413 -177.8828125 206.296875 C-177.89260635 205.4628717 -177.90240021 204.62886841 -177.91249084 203.76959229 C-178.08199242 185.58999411 -178.02463197 167.96353338 -173.64453125 150.203125 C-173.43022461 149.31367188 -173.21591797 148.42421875 -172.99511719 147.5078125 C-164.29465004 112.35133973 -146.9638405 81.71126328 -121.97851562 55.60009766 C-120.84094452 54.40881254 -119.71774901 53.20382736 -118.59765625 51.99609375 C-89.18386332 21.13675117 -42.52639053 0.24027657 0 0 Z M-78.64453125 46.203125 C-79.65902344 46.93660156 -80.67351562 47.67007813 -81.71875 48.42578125 C-119.98614044 76.5245807 -144.6606611 118.80478015 -152.45703125 165.515625 C-155.18690396 183.65500704 -154.96300572 203.16423813 -151.64453125 221.203125 C-151.4846875 222.440625 -151.32484375 223.678125 -151.16015625 224.953125 C-145.40795752 267.44048456 -119.17339767 308.79603874 -85.37109375 334.76171875 C-61.87886385 352.25275483 -35.61873641 363.72821998 -6.64453125 368.203125 C-5.60683594 368.38875 -4.56914062 368.574375 -3.5 368.765625 C18.44825727 371.25620739 40.05759198 368.36751897 61.35546875 363.203125 C62.93714844 362.831875 62.93714844 362.831875 64.55078125 362.453125 C71.21815039 360.78153388 77.19323218 358.22152332 83.35546875 355.203125 C84.60796118 354.60783776 85.86057245 354.01280053 87.11328125 353.41796875 C127.81544839 333.8479978 157.36604956 300.90442664 174.35546875 259.203125 C174.73058594 258.37425781 175.10570312 257.54539062 175.4921875 256.69140625 C179.35174929 247.95018529 181.27991827 238.49139171 183.35546875 229.203125 C183.52498047 228.48108887 183.69449219 227.75905273 183.86914062 227.01513672 C191.72926616 192.51701314 186.65751604 153.24144979 172.35546875 121.203125 C171.36546875 121.203125 170.37546875 121.203125 169.35546875 121.203125 C169.44570313 120.22472656 169.5359375 119.24632813 169.62890625 118.23828125 C169.616546 113.31519261 167.42406673 109.7953254 164.98046875 105.640625 C164.30262329 104.45980347 164.30262329 104.45980347 163.61108398 103.25512695 C141.21759674 64.90234847 104.84465131 33.8762231 61.4765625 22.1171875 C57.13058648 21.00481539 52.75537355 20.07485731 48.35546875 19.203125 C47.59911133 19.05069336 46.84275391 18.89826172 46.06347656 18.74121094 C3.53148417 10.47060511 -43.72449876 19.97475507 -78.64453125 46.203125 Z " fill="#A69E8F" transform="translate(177.64453125,-0.203125)"/>
<path d="M0 0 C17.05086212 13.97431524 30.65265138 30.19348322 41.62890625 49.30859375 C42.52802734 50.79359375 42.52802734 50.79359375 43.4453125 52.30859375 C46.51920105 57.55773985 48.44511603 61.18702038 47.62890625 67.30859375 C48.61890625 67.30859375 49.60890625 67.30859375 50.62890625 67.30859375 C65.52975429 100.21727516 69.72326284 139.98702767 61.62890625 175.30859375 C61.3080501 176.88530613 60.98775883 178.46213355 60.66796875 180.0390625 C55.28615921 205.06646275 43.71801611 229.40513164 27.62890625 249.30859375 C26.95730469 250.18257813 26.28570312 251.0565625 25.59375 251.95703125 C6.2209242 276.65285778 -19.02255527 294.42831293 -48.37109375 305.30859375 C-49.20640625 305.62183594 -50.04171875 305.93507813 -50.90234375 306.2578125 C-78.55991455 316.0102022 -109.70106262 319.10271757 -138.37109375 312.30859375 C-139.67683657 312.02620031 -140.98282913 311.74495932 -142.2890625 311.46484375 C-182.49627125 302.4862938 -217.03928716 278.25366472 -241.37109375 245.30859375 C-241.99733643 244.47279785 -241.99733643 244.47279785 -242.63623047 243.62011719 C-254.25284768 227.9254729 -270.80891536 201.59785419 -269.37109375 181.30859375 C-267.37109375 182.30859375 -267.37109375 182.30859375 -266.67260742 184.06762695 C-266.4635376 184.82390381 -266.25446777 185.58018066 -266.0390625 186.359375 C-265.8009082 187.19670166 -265.56275391 188.03402832 -265.31738281 188.89672852 C-265.06698242 189.79576904 -264.81658203 190.69480957 -264.55859375 191.62109375 C-262.28460707 199.4326083 -259.89793299 206.95572326 -256.37109375 214.30859375 C-255.87681885 215.34185791 -255.87681885 215.34185791 -255.37255859 216.39599609 C-247.5688545 232.49220396 -237.74064826 246.37874583 -225.37109375 259.30859375 C-224.58992188 260.16453125 -223.80875 261.02046875 -223.00390625 261.90234375 C-200.02284903 286.21057448 -162.07731181 306.35524124 -128.21533203 307.50146484 C-126.62413815 307.53442393 -125.03280143 307.56092126 -123.44140625 307.58203125 C-122.5823317 307.59464996 -121.72325714 307.60726868 -120.83815002 307.62026978 C-102.24405247 307.84030092 -84.27385572 308.0162805 -66.37109375 302.30859375 C-65.47777344 302.0245166 -64.58445313 301.74043945 -63.6640625 301.44775391 C-40.12601705 293.68171423 -19.24208355 281.48690952 -1.37109375 264.30859375 C-0.87399902 263.84259766 -0.3769043 263.37660156 0.13525391 262.89648438 C32.26403981 232.71046006 49.53394533 189.90782488 50.91796875 146.125 C51.42108992 118.13865649 46.42467932 92.37056342 34.328125 66.98828125 C30.32348829 58.48663446 30.32348829 58.48663446 31.50390625 53.93359375 C31.87515625 53.06734375 32.24640625 52.20109375 32.62890625 51.30859375 C31.55125 51.41558594 30.47359375 51.52257812 29.36328125 51.6328125 C25.62890625 51.30859375 25.62890625 51.30859375 23.58203125 49.140625 C23.02 48.14417969 22.45796875 47.14773437 21.87890625 46.12109375 C17.44067063 38.86857462 12.34331355 32.59571448 6.62890625 26.30859375 C6.11086426 25.73850586 5.59282227 25.16841797 5.05908203 24.58105469 C-10.8350246 7.35482474 -30.71660713 -5.78270374 -52.37109375 -14.69140625 C-53.54865234 -15.19220703 -53.54865234 -15.19220703 -54.75 -15.703125 C-68.92720169 -21.31632066 -84.86536947 -24.78108032 -100.1015625 -24.9296875 C-100.92617477 -24.9393454 -101.75078705 -24.9490033 -102.60038757 -24.95895386 C-105.25316895 -24.98367991 -107.90570976 -24.99633103 -110.55859375 -25.00390625 C-111.45926575 -25.00685699 -112.35993774 -25.00980774 -113.28790283 -25.0128479 C-126.41013817 -25.02266138 -138.70409998 -24.3971757 -151.37109375 -20.69140625 C-152.3765625 -20.42972656 -153.38203125 -20.16804688 -154.41796875 -19.8984375 C-156.78000597 -19.25066669 -159.06676882 -18.51892625 -161.37109375 -17.69140625 C-162.46744141 -17.29888672 -162.46744141 -17.29888672 -163.5859375 -16.8984375 C-166.21412548 -15.89701479 -168.78975777 -14.80849572 -171.37109375 -13.69140625 C-171.96776855 -13.43794434 -172.56444336 -13.18448242 -173.17919922 -12.92333984 C-190.3461309 -5.55513782 -205.66456838 4.6257371 -219.37109375 17.30859375 C-219.88365723 17.78264648 -220.3962207 18.25669922 -220.92431641 18.74511719 C-240.65884043 37.23812656 -255.05787819 60.62135575 -263.37109375 86.30859375 C-263.72945313 87.36433594 -264.0878125 88.42007813 -264.45703125 89.5078125 C-266.65194542 96.21632836 -268.18193305 102.88936156 -269.33251953 109.84130859 C-269.961776 113.5596423 -270.82208726 116.86635711 -272.37109375 120.30859375 C-272.70109375 120.30859375 -273.03109375 120.30859375 -273.37109375 120.30859375 C-274.03697254 109.67302968 -272.24461037 100.44684604 -269.37109375 90.30859375 C-269.17805664 89.61169434 -268.98501953 88.91479492 -268.78613281 88.19677734 C-263.52637919 69.66672578 -255.10517363 50.64799207 -243.37109375 35.30859375 C-242.76297852 34.49720947 -242.76297852 34.49720947 -242.14257812 33.66943359 C-220.45184066 4.78861834 -192.18503659 -18.4746145 -157.37109375 -29.69140625 C-156.365625 -30.03300781 -155.36015625 -30.37460937 -154.32421875 -30.7265625 C-101.26452656 -47.41878624 -42.96806605 -34.57129118 0 0 Z " fill="#030303" transform="translate(299.37109375,53.69140625)"/>
<path d="M0 0 C1.10637817 0.00429016 2.21275635 0.00858032 3.35266113 0.01300049 C4.56682205 0.03313705 5.78098297 0.05327362 7.03193665 0.07402039 C8.31009247 0.08333588 9.58824829 0.09265137 10.90513611 0.10224915 C14.41127643 0.12814527 17.91696258 0.17269517 21.42286277 0.22054696 C25.08630432 0.26739256 28.74988325 0.29714993 32.41348267 0.32870483 C39.35153223 0.3910674 46.2893204 0.46884105 53.22714692 0.55212516 C61.12538305 0.64618993 69.02375684 0.72311504 76.92218912 0.79858649 C93.170346 0.95422636 109.41819361 1.1314359 125.66596985 1.32279968 C125.89985657 6.03666687 125.89985657 6.03666687 123.7948761 8.61186218 C122.94796204 9.38272156 122.10104797 10.15358093 121.22846985 10.94779968 C117.66212053 14.33433307 114.41069447 17.72001475 111.35346985 21.57279968 C107.80628295 26.01777017 104.06317152 30.18836728 100.16596985 34.32279968 C96.34367906 38.38134565 92.65157422 42.46579422 89.16596985 46.82279968 C85.16249529 51.82714288 80.85260277 56.4697927 76.46284485 61.13139343 C73.22018914 64.59376179 70.13152902 68.11585071 67.16596985 71.82279968 C62.60555059 77.51911673 57.64862321 82.79599034 52.6620636 88.11576843 C48.23333574 92.84165316 44.01485736 97.7320331 39.8261261 102.67045593 C25.68369742 119.3139359 25.68369742 119.3139359 21.66596985 121.32279968 C31.22019903 121.39268664 40.77433856 121.44580565 50.32876873 121.4782362 C54.76653845 121.49381082 59.20413172 121.51489676 63.64179993 121.54911804 C67.93418901 121.58200724 72.22640969 121.59971417 76.51891518 121.60743141 C78.14656534 121.61292241 79.77420756 121.62364291 81.4017849 121.63998985 C99.29805489 121.81409773 99.29805489 121.81409773 115.66596985 115.32279968 C116.40846985 114.23998718 116.40846985 114.23998718 117.16596985 113.13529968 C118.66596985 111.32279968 118.66596985 111.32279968 121.79096985 111.01029968 C124.66596985 111.32279968 124.66596985 111.32279968 125.66596985 112.32279968 C126.35764126 120.67955098 126.2728621 127.20305711 121.66596985 134.32279968 C120.66596985 135.32279968 120.66596985 135.32279968 118.35649014 135.44584751 C116.80926061 135.44446482 116.80926061 135.44446482 115.23077393 135.4430542 C114.05141769 135.44442886 112.87206146 135.44580353 111.65696716 135.44721985 C110.35145905 135.44362457 109.04595093 135.4400293 107.70088196 135.43632507 C106.32144167 135.4360432 104.94200123 135.43620093 103.56256104 135.43676758 C99.80652867 135.43705556 96.05052796 135.43115873 92.29450297 135.42419362 C88.3733694 135.41796019 84.45223518 135.41735629 80.53109741 135.41616821 C73.10085374 135.41305486 65.67062471 135.40484143 58.2403875 135.39481872 C49.78345347 135.38365769 41.32651875 135.37814716 32.8695792 135.37312329 C15.4683676 135.36265882 -1.93282973 135.34505931 -19.33403015 135.32279968 C-19.58381121 131.4117542 -19.61936506 130.66069628 -16.95903015 127.51029968 C-14.33403015 125.32279968 -14.33403015 125.32279968 -12.33403015 125.32279968 C-12.11102234 124.78139343 -11.88801453 124.23998718 -11.6582489 123.68217468 C-9.91319265 120.57298891 -7.58074567 118.14444703 -5.14653015 115.57279968 C-4.14069945 114.49264972 -3.13548974 113.41192117 -2.13090515 112.33061218 C-1.4029071 111.54992371 -1.4029071 111.54992371 -0.66020203 110.75346375 C3.14900613 106.64411916 6.77358267 102.37126035 10.40815735 98.10795593 C15.99134691 91.56326716 21.63274333 85.10105733 27.4433136 78.75639343 C31.52646742 74.28573468 35.48439363 69.71138079 39.4120636 65.10404968 C44.99353371 58.56028826 50.63397723 52.09971001 56.4433136 45.75639343 C60.57242304 41.23541772 64.58223444 36.61857952 68.51753235 31.92826843 C69.03525208 31.31507751 69.5529718 30.7018866 70.08638 30.07011414 C71.10910709 28.85785849 72.12732307 27.6417766 73.14009094 26.42118835 C76.5991939 22.329013 80.27097656 18.42789642 84.66596985 15.32279968 C85.32596985 15.32279968 85.98596985 15.32279968 86.66596985 15.32279968 C86.66596985 14.66279968 86.66596985 14.00279968 86.66596985 13.32279968 C77.6329779 13.36106365 68.60044117 13.42072174 59.56777668 13.50670242 C55.37222178 13.54598828 51.17687083 13.57826828 46.9811554 13.59379578 C42.92193127 13.60908831 38.86326859 13.64375192 34.80429649 13.6911087 C33.26603806 13.70579408 31.72769941 13.7138332 30.18937111 13.71468353 C20.43113174 13.72548895 11.88100493 14.79700074 2.66596985 18.32279968 C1.74918961 18.65201416 0.83240936 18.98122864 -0.1121521 19.32041931 C-2.49999554 20.14834491 -2.49999554 20.14834491 -3.64653015 22.44779968 C-3.87340515 23.06654968 -4.10028015 23.68529968 -4.33403015 24.32279968 C-6.31403015 24.32279968 -8.29403015 24.32279968 -10.33403015 24.32279968 C-12.31729091 18.3730174 -12.17984846 11.61859222 -10.02153015 5.76029968 C-6.94498794 1.31640538 -5.56680849 -0.05859798 0 0 Z " fill="#5C919D" transform="translate(206.3340301513672,103.67720031738281)"/>
<path d="M0 0 C31.35 0 62.7 0 95 0 C95 5.61 95 11.22 95 17 C73.55 17 52.1 17 30 17 C30 30.53 30 44.06 30 58 C48.81 58 67.62 58 87 58 C85 67 85 67 82 74 C64.84 74 47.68 74 30 74 C30.144375 81.8375 30.28875 89.675 30.4375 97.75 C30.48060303 100.19889648 30.52370605 102.64779297 30.56811523 105.17089844 C30.60630415 107.15039651 30.64477866 109.12988911 30.68359375 111.109375 C30.70006958 112.10598145 30.71654541 113.10258789 30.73352051 114.12939453 C30.87550085 121.11788821 31.34533509 128.04122044 32 135 C28.03069011 135.02465881 24.06140966 135.04284023 20.09204102 135.05493164 C18.74079614 135.05997057 17.38955674 135.06680177 16.03833008 135.07543945 C14.09979566 135.08752419 12.161222 135.09269828 10.22265625 135.09765625 C9.05484619 135.10289307 7.88703613 135.10812988 6.68383789 135.11352539 C4 135 4 135 3 134 C2.89640799 132.4814528 2.86204395 130.95812697 2.85523987 129.43606567 C2.84834137 128.44930344 2.84144287 127.4625412 2.83433533 126.44587708 C2.83172195 125.35401596 2.82910858 124.26215485 2.82641602 123.13720703 C2.8163855 121.42247948 2.8163855 121.42247948 2.80615234 119.67311096 C2.79205977 117.17947601 2.78017928 114.68582783 2.77020454 112.192173 C2.7538343 108.24044313 2.73059397 104.28880994 2.70530701 100.33712769 C2.63410616 89.09719941 2.57456874 77.85722316 2.52319336 66.6171875 C2.49476655 60.41447995 2.45930929 54.21185034 2.41653961 48.00922477 C2.3942775 44.72973487 2.37686873 41.4503306 2.36609077 38.17078018 C2.35385949 34.49932276 2.3296733 30.82811512 2.30297852 27.15673828 C2.30238937 26.08511948 2.30180023 25.01350067 2.30119324 23.90940857 C2.24353102 17.88729178 1.67372404 12.26558071 0.42684841 6.36948967 C0 4 0 4 0 0 Z " fill="#CDCDCD" transform="translate(505,104)"/>
<path d="M0 0 C47.19 0 94.38 0 143 0 C143 5.28 143 10.56 143 16 C123.53 16 104.06 16 84 16 C84.14910852 34.7490616 84.14910852 34.7490616 84.30664062 53.49804688 C84.37280365 61.15029061 84.4380019 68.80253369 84.49731445 76.45483398 C84.545221 82.62755269 84.59757133 88.80021948 84.65294075 94.9728756 C84.6732458 97.32223904 84.69197749 99.67161665 84.70907402 102.02100563 C84.7333825 105.32370722 84.76339795 108.62631313 84.79467773 111.92895508 C84.8004332 112.88993607 84.80618866 113.85091705 84.81211853 114.84101868 C84.88140565 121.32064721 85.40904633 127.49950958 86 134 C76.43 134 66.86 134 57 134 C57 95.06 57 56.12 57 16 C39.51 16 22.02 16 4 16 C2.68 15.67 1.36 15.34 0 15 C0 10.05 0 5.1 0 0 Z " fill="#CCCCCC" transform="translate(347,105)"/>
<path d="M0 0 C3 1 3 1 4.46484375 3.89453125 C4.97276599 5.19398971 5.46234355 6.50070595 5.9375 7.8125 C6.19619873 8.5144751 6.45489746 9.2164502 6.72143555 9.93969727 C12.30405945 25.8417694 14.17813849 42.49290137 14.1875 59.25 C14.19974609 60.38824219 14.21199219 61.52648437 14.22460938 62.69921875 C14.25361328 79.73417695 14.25361328 79.73417695 12 86 C1.55455738 91.03131636 -10.40162215 90.26943161 -21.69921875 90.1953125 C-23.38743419 90.1915746 -25.07565183 90.1887313 -26.76387024 90.18673706 C-31.1713172 90.17916175 -35.57862884 90.15956691 -39.98602295 90.1373291 C-44.49782481 90.11673797 -49.0096489 90.10770719 -53.52148438 90.09765625 C-62.34771781 90.07631424 -71.17384199 90.04225357 -80 90 C-75.21289063 85.20410156 -75.21289063 85.20410156 -73.296875 83.3671875 C-69.88729164 80.07814497 -66.83880958 76.63411964 -63.875 72.9375 C-59.18099608 67.10214581 -54.11536098 61.66883492 -48.99609375 56.20703125 C-44.61883286 51.5360668 -40.4485711 46.70252459 -36.30078125 41.828125 C-35.28418244 40.63513685 -34.26724412 39.44243795 -33.25 38.25 C-32.73518066 37.64631592 -32.22036133 37.04263184 -31.68994141 36.4206543 C-28.3089738 32.47513982 -24.84884057 28.61894296 -21.3125 24.8125 C-17.04481543 20.20094444 -13.02280244 15.45083042 -9.08203125 10.55859375 C-6.14942344 6.95473237 -3.09075369 3.46840205 0 0 Z " fill="#010101" transform="translate(307,136)"/>
<path d="M0 0 C10.66379619 -0.39864659 18.07896536 2.73828326 27.03125 8.1875 C27.03125 8.8475 27.03125 9.5075 27.03125 10.1875 C23.40125 10.5175 19.77125 10.8475 16.03125 11.1875 C17.56845703 11.36925781 17.56845703 11.36925781 19.13671875 11.5546875 C20.49743979 11.72360459 21.8581145 11.8928952 23.21875 12.0625 C23.89228516 12.14113281 24.56582031 12.21976563 25.25976562 12.30078125 C29.13452484 12.79221413 32.48209723 13.54730901 36.03125 15.1875 C34.55029725 28.27912235 24.36376008 39.54415989 15.03125 48.1875 C14.37125 48.1875 13.71125 48.1875 13.03125 48.1875 C13.03125 48.8475 13.03125 49.5075 13.03125 50.1875 C12.37125 50.1875 11.71125 50.1875 11.03125 50.1875 C11.03125 50.8475 11.03125 51.5075 11.03125 52.1875 C10.37125 52.1875 9.71125 52.1875 9.03125 52.1875 C9.8046875 53.5796875 9.8046875 53.5796875 10.59375 55 C12.03125 58.1875 12.03125 58.1875 11.03125 61.1875 C11.63598145 61.09662109 12.24071289 61.00574219 12.86376953 60.91210938 C15.6272794 60.4994083 18.39173354 60.09340123 21.15625 59.6875 C22.10757813 59.54441406 23.05890625 59.40132812 24.0390625 59.25390625 C28.74319706 58.56788663 33.2616757 57.99478993 38.03125 58.1875 C37.90625 60.5 37.90625 60.5 37.03125 63.1875 C33.49183648 65.43985406 30.16731764 66.57925476 26.03125 67.1875 C28.67125 67.5175 31.31125 67.8475 34.03125 68.1875 C28.01047698 76.10116757 19.95206649 82.08090224 9.86083984 83.49072266 C7.61683635 83.62389646 5.40391831 83.65557888 3.15625 83.625 C2.36613525 83.61670166 1.57602051 83.60840332 0.76196289 83.59985352 C-10.70222353 83.26873661 -18.64486099 78.41279832 -26.72265625 70.4609375 C-30.38398455 66.44173501 -32.85755635 62.1793001 -34.96875 57.1875 C-35.26910156 56.52234375 -35.56945312 55.8571875 -35.87890625 55.171875 C-39.43270687 46.24605019 -39.24697098 35.65027268 -36.0703125 26.625 C-30.54065269 14.38915701 -22.47282916 6.13530616 -9.96875 1.1875 C-6.59867695 0.36087831 -3.45076924 0.21794332 0 0 Z " fill="#2C3134" transform="translate(129.96875,167.8125)"/>
<path d="M0 0 C1.22009766 -0.020625 2.44019531 -0.04125 3.69726562 -0.0625 C11.05367531 -0.09412347 17.29857946 0.60876576 24.1875 3.25 C22.70654725 16.34162235 12.52001008 27.60665989 3.1875 36.25 C2.5275 36.25 1.8675 36.25 1.1875 36.25 C1.1875 36.91 1.1875 37.57 1.1875 38.25 C0.5275 38.25 -0.1325 38.25 -0.8125 38.25 C-0.8125 38.91 -0.8125 39.57 -0.8125 40.25 C-1.4725 40.25 -2.1325 40.25 -2.8125 40.25 C-2.8125 40.91 -2.8125 41.57 -2.8125 42.25 C-3.4725 42.25 -4.1325 42.25 -4.8125 42.25 C-5.1425 43.24 -5.4725 44.23 -5.8125 45.25 C-5.8125 44.59 -5.8125 43.93 -5.8125 43.25 C-8.34923288 44.6053326 -8.34923288 44.6053326 -10.8125 46.25 C-10.8125 46.91 -10.8125 47.57 -10.8125 48.25 C-7.8425 48.58 -4.8725 48.91 -1.8125 49.25 C-1.8125 51.23 -1.8125 53.21 -1.8125 55.25 C-10.39327055 55.49911914 -18.39423087 54.94882188 -26.8125 53.25 C-28.0088717 49.73012049 -27.84745468 49.32618963 -26.16015625 45.6484375 C-25.41055477 44.30048156 -24.64833464 42.9594816 -23.875 41.625 C-20.99805835 37.19142894 -20.99805835 37.19142894 -19.8125 32.25 C-20.4725 31.59 -21.1325 30.93 -21.8125 30.25 C-19.8325 30.58 -17.8525 30.91 -15.8125 31.25 C-15.8125 30.59 -15.8125 29.93 -15.8125 29.25 C-16.4725 29.25 -17.1325 29.25 -17.8125 29.25 C-17.8125 28.59 -17.8125 27.93 -17.8125 27.25 C-17.1525 27.25 -16.4925 27.25 -15.8125 27.25 C-15.8125 26.59 -15.8125 25.93 -15.8125 25.25 C-15.1525 25.25 -14.4925 25.25 -13.8125 25.25 C-13.1525 24.26 -12.4925 23.27 -11.8125 22.25 C-11.214375 22.105625 -10.61625 21.96125 -10 21.8125 C-6.98815823 21.0380264 -5.19688676 19.19515762 -2.8125 17.25 C-2.1525 17.25 -1.4925 17.25 -0.8125 17.25 C-0.8125 16.59 -0.8125 15.93 -0.8125 15.25 C1.45581687 13.59376863 3.8292912 12.16247457 6.21875 10.6875 C6.8684375 10.213125 7.518125 9.73875 8.1875 9.25 C8.1875 8.59 8.1875 7.93 8.1875 7.25 C4.83340806 7.19140143 1.47944983 7.15620418 -1.875 7.125 C-3.28942383 7.09986328 -3.28942383 7.09986328 -4.73242188 7.07421875 C-10.2254627 7.03593972 -14.59954528 7.56500453 -19.8125 9.25 C-22.52812756 9.46794764 -25.08010245 9.3458736 -27.8125 9.25 C-26.89254839 6.15561732 -26.17466714 4.53973371 -23.625 2.5 C-16.32597861 -0.74400951 -7.82616131 0.03276258 0 0 Z " fill="#47666E" transform="translate(141.8125,179.75)"/>
<path d="M0 0 C0.04898438 1.14597656 0.09796875 2.29195312 0.1484375 3.47265625 C0.22352801 5.00262535 0.29907306 6.53257218 0.375 8.0625 C0.4059375 8.81466797 0.436875 9.56683594 0.46875 10.34179688 C0.65732812 13.97192566 1.01152676 17.04007968 2.0234375 20.55859375 C3.12282294 24.43282803 3.29585321 28.01077068 3.25 32 C3.26160156 33.00933594 3.26160156 33.00933594 3.2734375 34.0390625 C3.26079266 37.31407691 2.97000731 40.10227017 2.046875 43.25 C0.51425287 48.28636533 0.51425287 48.28636533 0 59 C-9.57 58.67 -19.14 58.34 -29 58 C-29 57.67 -29 57.34 -29 57 C-28.03320312 56.96261719 -27.06640625 56.92523438 -26.0703125 56.88671875 C-14.61323815 56.65012667 -14.61323815 56.65012667 -4 53 C-2.69929349 50.47676389 -2.69929349 50.47676389 -2 48 C-3.27875 48.2165625 -4.5575 48.433125 -5.875 48.65625 C-7.58327826 48.93783433 -9.29161475 49.21906554 -11 49.5 C-11.83917969 49.64308594 -12.67835938 49.78617188 -13.54296875 49.93359375 C-18.77182201 50.78480242 -23.70275027 51.14714583 -29 51 C-29.144375 50.071875 -29.28875 49.14375 -29.4375 48.1875 C-29.92100111 44.99274889 -29.92100111 44.99274889 -31 42 C-30.34 42 -29.68 42 -29 42 C-29 41.34 -29 40.68 -29 40 C-28.34 40 -27.68 40 -27 40 C-27 39.34 -27 38.68 -27 38 C-25.87474845 36.97350723 -24.69717355 36.00412304 -23.5 35.0625 C-15.04311005 27.84575469 -6.24208489 16.10734011 -4 5 C-12.27795453 3.16911123 -20.59445466 2.05349502 -29 1 C-29 0.67 -29 0.34 -29 0 C-19.19345244 -0.81826135 -9.82174407 -1.09317357 0 0 Z " fill="#24282B" transform="translate(170,178)"/>
<path d="M0 0 C4.29 0 8.58 0 13 0 C13 0.66 13 1.32 13 2 C11.3603125 2.6496875 11.3603125 2.6496875 9.6875 3.3125 C6.03211822 4.87803725 3.80851067 6.38297866 2 10 C3.93798521 9.69052329 5.87537426 9.37731166 7.8125 9.0625 C8.89144531 8.88847656 9.97039062 8.71445313 11.08203125 8.53515625 C14.04933356 8.06128079 14.04933356 8.06128079 17 7 C18.62719482 6.91856145 20.25751719 6.8924698 21.88671875 6.90234375 C22.82451172 6.90556641 23.76230469 6.90878906 24.72851562 6.91210938 C26.19321289 6.92467773 26.19321289 6.92467773 27.6875 6.9375 C28.67556641 6.94201172 29.66363281 6.94652344 30.68164062 6.95117188 C33.12115474 6.96295697 35.56054689 6.97940989 38 7 C38 11 38 11 36.5390625 12.484375 C35.90742188 12.90203125 35.27578125 13.3196875 34.625 13.75 C33.99851563 14.17796875 33.37203125 14.6059375 32.7265625 15.046875 C31 16 31 16 29 16 C29 16.66 29 17.32 29 18 C27.02678947 19.3726682 25.02456848 20.70427617 23 22 C22.34 22.66 21.68 23.32 21 24 C20.01 24 19.02 24 18 24 C17.34 25.32 16.68 26.64 16 28 C16 27.34 16 26.68 16 26 C15.34 26 14.68 26 14 26 C14 26.66 14 27.32 14 28 C9.38 28 4.76 28 0 28 C0 18.76 0 9.52 0 0 Z " fill="#1C2023" transform="translate(112,179)"/>
<path d="M0 0 C1.09570312 0.00902344 2.19140625 0.01804688 3.3203125 0.02734375 C4.16335937 0.03894531 5.00640625 0.05054688 5.875 0.0625 C5.90194851 2.02075873 5.92137218 3.97912226 5.9375 5.9375 C5.94910156 7.02804688 5.96070313 8.11859375 5.97265625 9.2421875 C5.875 12.0625 5.875 12.0625 4.875 14.0625 C4.215 14.0625 3.555 14.0625 2.875 14.0625 C2.545 15.0525 2.215 16.0425 1.875 17.0625 C1.875 16.4025 1.875 15.7425 1.875 15.0625 C-0.66173288 16.4178326 -0.66173288 16.4178326 -3.125 18.0625 C-3.125 18.7225 -3.125 19.3825 -3.125 20.0625 C-0.155 20.3925 2.815 20.7225 5.875 21.0625 C5.875 23.0425 5.875 25.0225 5.875 27.0625 C-2.70577055 27.31161914 -10.70673087 26.76132188 -19.125 25.0625 C-20.3213717 21.54262049 -20.15995468 21.13868963 -18.47265625 17.4609375 C-17.72305477 16.11298156 -16.96083464 14.7719816 -16.1875 13.4375 C-13.31055835 9.00392894 -13.31055835 9.00392894 -12.125 4.0625 C-12.785 3.4025 -13.445 2.7425 -14.125 2.0625 C-11.155 2.5575 -11.155 2.5575 -8.125 3.0625 C-8.125 2.4025 -8.125 1.7425 -8.125 1.0625 C-5.36047967 -0.31976016 -3.0788637 -0.03275387 0 0 Z " fill="#495960" transform="translate(134.125,207.9375)"/>
<path d="M0 0 C1.58206422 0.00574487 3.16410406 0.01876032 4.74609375 0.03515625 C7.53046875 0.05578125 10.31484375 0.07640625 13.18359375 0.09765625 C13.18359375 5.70765625 13.18359375 11.31765625 13.18359375 17.09765625 C3.80534563 20.13568029 -5.0456155 20.76547227 -14.81640625 21.09765625 C-15.03296875 19.70546875 -15.03296875 19.70546875 -15.25390625 18.28515625 C-15.73740736 15.09040514 -15.73740736 15.09040514 -16.81640625 12.09765625 C-16.15640625 12.09765625 -15.49640625 12.09765625 -14.81640625 12.09765625 C-14.81640625 11.43765625 -14.81640625 10.77765625 -14.81640625 10.09765625 C-14.15640625 10.09765625 -13.49640625 10.09765625 -12.81640625 10.09765625 C-12.81640625 9.43765625 -12.81640625 8.77765625 -12.81640625 8.09765625 C-11.1015625 6.40625 -11.1015625 6.40625 -8.87890625 4.53515625 C-8.14800781 3.91511719 -7.41710937 3.29507813 -6.6640625 2.65625 C-5.74947266 1.88474609 -5.74947266 1.88474609 -4.81640625 1.09765625 C-3.81640625 0.09765625 -3.81640625 0.09765625 0 0 Z " fill="#202326" transform="translate(155.81640625,207.90234375)"/>
<path d="M0 0 C1.09634766 -0.00386719 2.19269531 -0.00773438 3.32226562 -0.01171875 C4.88944336 -0.00978516 4.88944336 -0.00978516 6.48828125 -0.0078125 C7.43872314 -0.00668457 8.38916504 -0.00555664 9.3684082 -0.00439453 C11.6875 0.125 11.6875 0.125 13.6875 1.125 C13.6875 4.755 13.6875 8.385 13.6875 12.125 C11.7075 12.125 9.7275 12.125 7.6875 12.125 C7.6875 11.465 7.6875 10.805 7.6875 10.125 C8.3475 9.795 9.0075 9.465 9.6875 9.125 C9.6875 8.465 9.6875 7.805 9.6875 7.125 C6.33340806 7.06640143 2.97944983 7.03120418 -0.375 7 C-1.78942383 6.97486328 -1.78942383 6.97486328 -3.23242188 6.94921875 C-8.7254627 6.91093972 -13.09954528 7.44000453 -18.3125 9.125 C-21.02812756 9.34294764 -23.58010245 9.2208736 -26.3125 9.125 C-25.39254839 6.03061732 -24.67466714 4.41473371 -22.125 2.375 C-15.21738069 -0.69505303 -7.41142566 -0.02661194 0 0 Z " fill="#578793" transform="translate(140.3125,179.875)"/>
<path d="M0 0 C0 3.3 0 6.6 0 10 C3.63 10 7.26 10 11 10 C9.03699519 13.92600963 7.22611601 16.09649559 4 19 C3.34 19 2.68 19 2 19 C2 19.66 2 20.32 2 21 C1.34 21 0.68 21 0 21 C-0.33 21.66 -0.66 22.32 -1 23 C-1 19.04 -1 15.08 -1 11 C-8.92 11.495 -8.92 11.495 -17 12 C-17 11.34 -17 10.68 -17 10 C-16.34 10 -15.68 10 -15 10 C-15 9.34 -15 8.68 -15 8 C-14.34 8 -13.68 8 -13 8 C-12.34 7.01 -11.68 6.02 -11 5 C-10.401875 4.855625 -9.80375 4.71125 -9.1875 4.5625 C-5.52673027 3.62115921 -3.75079987 0 0 0 Z " fill="#3A464B" transform="translate(141,197)"/>
<path d="M0 0 C0.90105469 0.01804688 1.80210937 0.03609375 2.73046875 0.0546875 C3.41753906 0.07789063 4.10460937 0.10109375 4.8125 0.125 C5.03392255 2.08189659 5.2392568 4.04061952 5.4375 6 C5.55351562 7.09054688 5.66953125 8.18109375 5.7890625 9.3046875 C5.79679688 10.23539063 5.80453125 11.16609375 5.8125 12.125 C3.8125 14.125 3.8125 14.125 0.9921875 14.3203125 C-0.09835938 14.29710937 -1.18890625 14.27390625 -2.3125 14.25 C-3.40820312 14.23195312 -4.50390625 14.21390625 -5.6328125 14.1953125 C-6.47585937 14.17210937 -7.31890625 14.14890625 -8.1875 14.125 C-8.26832094 12.16733719 -8.32660778 10.20873272 -8.375 8.25 C-8.40980469 7.15945312 -8.44460937 6.06890625 -8.48046875 4.9453125 C-8.38378906 4.01460937 -8.28710938 3.08390625 -8.1875 2.125 C-4.87379 -0.08414 -3.8428979 -0.09981553 0 0 Z " fill="#5B8F9B" transform="translate(149.1875,192.875)"/>
<path d="M0 0 C-0.125 2.3125 -0.125 2.3125 -1 5 C-7.03769415 8.842169 -12.82731334 9.14939706 -19.8125 9.0625 C-20.50537109 9.05798828 -21.19824219 9.05347656 -21.91210938 9.04882812 C-23.60811068 9.03713156 -25.30406703 9.01919924 -27 9 C-27 7.02 -27 5.04 -27 3 C-23.62601911 2.49295891 -20.25067379 1.99563464 -16.875 1.5 C-15.92367187 1.35691406 -14.97234375 1.21382812 -13.9921875 1.06640625 C-9.28805294 0.38038663 -4.7695743 -0.19271007 0 0 Z " fill="#558590" transform="translate(168,226)"/>
<path d="M0 0 C4.29 0 8.58 0 13 0 C13 4.29 13 8.58 13 13 C8.71 13 4.42 13 0 13 C0 8.71 0 4.42 0 0 Z " fill="#000000" transform="translate(156,208)"/>
<path d="M0 0 C1.65322266 0.01740234 1.65322266 0.01740234 3.33984375 0.03515625 C4.99693359 0.04869141 4.99693359 0.04869141 6.6875 0.0625 C7.54214844 0.07410156 8.39679688 0.08570313 9.27734375 0.09765625 C9.30420928 2.07675023 9.3236775 4.05594596 9.33984375 6.03515625 C9.35144531 7.13730469 9.36304688 8.23945313 9.375 9.375 C9.27734375 12.09765625 9.27734375 12.09765625 8.27734375 13.09765625 C6.25770176 13.17009678 4.23567251 13.18142813 2.21484375 13.16015625 C1.11011719 13.15113281 0.00539062 13.14210937 -1.1328125 13.1328125 C-2.41478516 13.11541016 -2.41478516 13.11541016 -3.72265625 13.09765625 C-3.74952178 11.11856227 -3.76899 9.13936654 -3.78515625 7.16015625 C-3.79675781 6.05800781 -3.80835937 4.95585937 -3.8203125 3.8203125 C-3.68888959 0.15624171 -3.66407079 0.13142291 0 0 Z " fill="#BFCDD1" transform="translate(130.72265625,207.90234375)"/>
<path d="M0 0 C2 1 2 1 2.69848633 2.7590332 C2.90755615 3.51531006 3.11662598 4.27158691 3.33203125 5.05078125 C3.57018555 5.88810791 3.80833984 6.72543457 4.05371094 7.58813477 C4.30411133 8.48717529 4.55451172 9.38621582 4.8125 10.3125 C7.08648668 18.12401455 9.47316076 25.64712951 13 33 C13.3295166 33.68884277 13.6590332 34.37768555 13.99853516 35.08740234 C19.81094624 47.07629581 26.66544018 57.61760159 35 68 C34.01 68.33 33.02 68.66 32 69 C24.93491845 60.1811748 19.2066848 51.01715814 14 41 C13.64518555 40.31776367 13.29037109 39.63552734 12.92480469 38.93261719 C8.74004342 30.76016096 5.29631204 22.49909909 2.5 13.75 C2.24452393 12.95166748 1.98904785 12.15333496 1.72583008 11.33081055 C0.54793753 7.45763486 -0.32772246 4.09653075 0 0 Z " fill="#0E0E0D" transform="translate(30,235)"/>
<path d="M0 0 C3.96 0 7.92 0 12 0 C12 3.96 12 7.92 12 12 C8.04 12 4.08 12 0 12 C0 8.04 0 4.08 0 0 Z " fill="#000000" transform="translate(113,194)"/>
<path d="M0 0 C0.01981934 1.25022949 0.03963867 2.50045898 0.06005859 3.78857422 C0.13664416 8.46666194 0.22527624 13.14445989 0.31738281 17.82226562 C0.35545525 19.83945965 0.39034432 21.85671655 0.421875 23.87402344 C0.46800145 26.78863872 0.52591296 29.70282913 0.5859375 32.6171875 C0.59748871 33.50614716 0.60903992 34.39510681 0.62094116 35.31100464 C0.74426989 40.64976953 1.37858641 45.61414063 2.56484985 50.82351685 C3.11483016 53.57434408 3.14712148 56.20469185 3 59 C2.34 58.67 1.68 58.34 1 58 C0.37170053 55.52888916 -0.1294898 53.13141884 -0.5625 50.625 C-0.68818359 49.95855469 -0.81386719 49.29210937 -0.94335938 48.60546875 C-2.94270075 37.530583 -3.13372089 26.54255692 -3.0625 15.3125 C-3.05747028 13.91731933 -3.05291 12.52213689 -3.04882812 11.12695312 C-3.03714751 7.75125563 -3.02076833 4.37565174 -3 1 C-1 0 -1 0 0 0 Z " fill="#161615" transform="translate(27,175)"/>
<path d="M0 0 C1.051875 0.144375 2.10375 0.28875 3.1875 0.4375 C3.1875 4.7275 3.1875 9.0175 3.1875 13.4375 C-1.1025 13.4375 -5.3925 13.4375 -9.8125 13.4375 C-8.67910226 6.63711355 -7.54045666 0.86529831 0 0 Z " fill="#030304" transform="translate(165.8125,193.5625)"/>
<path d="M0 0 C1.93875 -0.020625 3.8775 -0.04125 5.875 -0.0625 C6.96554688 -0.07410156 8.05609375 -0.08570313 9.1796875 -0.09765625 C12 0 12 0 14 1 C14 1.66 14 2.32 14 3 C12.68 3 11.36 3 10 3 C10.66 3.66 11.32 4.32 12 5 C11.15042658 6.34967692 10.2691392 7.67942518 9.375 9 C8.88773438 9.7425 8.40046875 10.485 7.8984375 11.25 C6 13 6 13 0 13 C0 8.71 0 4.42 0 0 Z " fill="#030404" transform="translate(112,208)"/>
<path d="M0 0 C2.97 0 5.94 0 9 0 C9 3.63 9 7.26 9 11 C0.42857143 11.28571429 0.42857143 11.28571429 -3 9 C-2.41321669 5.47930015 -1.64350079 3.28700157 0 0 Z " fill="#588B97" transform="translate(117,223)"/>
<path d="M0 0 C2.31 0 4.62 0 7 0 C6.2575 0.680625 6.2575 0.680625 5.5 1.375 C3.77390663 2.87635519 3.77390663 2.87635519 4 5 C6.97 5.33 9.94 5.66 13 6 C13 7.98 13 9.96 13 12 C8.71 12 4.42 12 0 12 C0 8.04 0 4.08 0 0 Z " fill="#5D919C" transform="translate(127,223)"/>
<path d="M0 0 C4.29 0 8.58 0 13 0 C13 0.66 13 1.32 13 2 C11.3603125 2.6496875 11.3603125 2.6496875 9.6875 3.3125 C6.03211822 4.87803725 3.80851067 6.38297866 2 10 C7.445 9.505 7.445 9.505 13 9 C13 10.32 13 11.64 13 13 C8.71 13 4.42 13 0 13 C0 8.71 0 4.42 0 0 Z " fill="#07090A" transform="translate(112,179)"/>
<path d="M0 0 C0.66 0 1.32 0 2 0 C2 4.29 2 8.58 2 13 C-8.75 13.125 -8.75 13.125 -11 12 C-11 11.34 -11 10.68 -11 10 C-10.34 10 -9.68 10 -9 10 C-9 9.34 -9 8.68 -9 8 C-7.28515625 6.30859375 -7.28515625 6.30859375 -5.0625 4.4375 C-3.96615234 3.50744141 -3.96615234 3.50744141 -2.84765625 2.55859375 C-1.93306641 1.78708984 -1.93306641 1.78708984 -1 1 C-0.67 0.67 -0.34 0.34 0 0 Z " fill="#050607" transform="translate(152,208)"/>
<path d="M0 0 C4.29 0 8.58 0 13 0 C11.76878283 4.9248687 10.04358311 6.08862016 6 9 C5.01 9 4.02 9 3 9 C2.34 10.32 1.68 11.64 1 13 C-0.92572521 9.14854957 -0.04883218 4.19956748 0 0 Z " fill="#020203" transform="translate(127,194)"/>
<path d="M0 0 C3.46941546 0.45822468 6.67395049 0.89131683 10 2 C9.5020163 5.73487777 9.12508244 7.81237635 7 11 C3.375 11.1875 3.375 11.1875 0 11 C0 7.37 0 3.74 0 0 Z " fill="#5A8F9B" transform="translate(156,181)"/>
<path d="M0 0 C1.62490954 -0.02698189 3.24994633 -0.04638757 4.875 -0.0625 C5.77992188 -0.07410156 6.68484375 -0.08570313 7.6171875 -0.09765625 C10 0 10 0 12 1 C12 4.63 12 8.26 12 12 C10.02 12 8.04 12 6 12 C6 11.34 6 10.68 6 10 C6.66 9.67 7.32 9.34 8 9 C8 8.34 8 7.68 8 7 C5.36 6.34 2.72 5.68 0 5 C0 3.35 0 1.7 0 0 Z " fill="#5C929E" transform="translate(142,180)"/>
<path d="M0 0 C0.99 0 1.98 0 3 0 C1.38349815 19.22786408 1.38349815 19.22786408 -2 27 C-2.33 27 -2.66 27 -3 27 C-3.4277608 17.46251851 -2.32520414 9.23161404 0 0 Z " fill="#10100F" transform="translate(29,147)"/>
<path d="M0 0 C4.29 0 8.58 0 13 0 C13 4.29 13 8.58 13 13 C11.35 13 9.7 13 8 13 C8.66 10.03 9.32 7.06 10 4 C6.7 3.34 3.4 2.68 0 2 C0 1.34 0 0.68 0 0 Z " fill="#030405" transform="translate(156,179)"/>
<path d="M0 0 C4.29 0 8.58 0 13 0 C13 1.65 13 3.3 13 5 C8.59085217 6.10228696 4.51617599 6.07654536 0 6 C0 4.02 0 2.04 0 0 Z " fill="#030405" transform="translate(141,223)"/>
<path d="M0 0 C4.29 0 8.58 0 13 0 C13 1.65 13 3.3 13 5 C6.565 5.495 6.565 5.495 0 6 C0 4.02 0 2.04 0 0 Z " fill="#5C929E" transform="translate(141,229)"/>
<path d="M0 0 C1.65 0 3.3 0 5 0 C4.34 2.97 3.68 5.94 3 9 C6.3 9.66 9.6 10.32 13 11 C13 11.66 13 12.32 13 13 C8.71 13 4.42 13 0 13 C0 8.71 0 4.42 0 0 Z " fill="#020303" transform="translate(112,223)"/>
<path d="M0 0 C3.63 0 7.26 0 11 0 C5.375 6.875 5.375 6.875 2 8 C2 8.66 2 9.32 2 10 C1.34 10 0.68 10 0 10 C0 6.7 0 3.4 0 0 Z " fill="#6B95A0" transform="translate(141,208)"/>
<path d="M0 0 C0 3.3 0 6.6 0 10 C-3.3 10 -6.6 10 -10 10 C-10 9.01 -10 8.02 -10 7 C-8.06640625 5.17578125 -8.06640625 5.17578125 -5.5625 3.3125 C-4.73878906 2.68988281 -3.91507813 2.06726563 -3.06640625 1.42578125 C-1 0 -1 0 0 0 Z " fill="#65949E" transform="translate(140,197)"/>
<path d="M0 0 C3.96 0 7.92 0 12 0 C12 1.65 12 3.3 12 5 C7.71 5 3.42 5 -1 5 C-0.67 3.35 -0.34 1.7 0 0 Z " fill="#000000" transform="translate(128,187)"/>
<path d="M0 0 C0.66 0 1.32 0 2 0 C2 2.31 2 4.62 2 7 C-7.24 7 -16.48 7 -26 7 C-26 6.67 -26 6.34 -26 6 C-25.03320312 5.96261719 -24.06640625 5.92523438 -23.0703125 5.88671875 C-11.75155332 5.37390466 -11.75155332 5.37390466 -1 2 C-0.67 1.34 -0.34 0.68 0 0 Z " fill="#070809" transform="translate(167,229)"/>
<path d="M0 0 C0.1875 2.375 0.1875 2.375 0 5 C-3.08888522 7.05925681 -3.70935927 7.2390374 -7.1875 7.125 C-9.0746875 7.063125 -9.0746875 7.063125 -11 7 C-8.87296567 0.78251503 -6.45381515 -0.28683623 0 0 Z " fill="#5A8E9A" transform="translate(125,182)"/>
<path d="M0 0 C1.65322266 0.01740234 1.65322266 0.01740234 3.33984375 0.03515625 C4.99693359 0.04869141 4.99693359 0.04869141 6.6875 0.0625 C7.54214844 0.07410156 8.39679688 0.08570313 9.27734375 0.09765625 C9.27734375 2.07765625 9.27734375 4.05765625 9.27734375 6.09765625 C8.61734375 6.09765625 7.95734375 6.09765625 7.27734375 6.09765625 C6.61734375 5.10765625 5.95734375 4.11765625 5.27734375 3.09765625 C2.28581793 3.87245361 2.28581793 3.87245361 -0.72265625 5.09765625 C-1.05265625 6.08765625 -1.38265625 7.07765625 -1.72265625 8.09765625 C-2.38265625 8.09765625 -3.04265625 8.09765625 -3.72265625 8.09765625 C-3.76507348 5.7647085 -3.76358562 3.43063058 -3.72265625 1.09765625 C-2.72265625 0.09765625 -2.72265625 0.09765625 0 0 Z " fill="#9FBAC1" transform="translate(130.72265625,207.90234375)"/>
<path d="M0 0 C0.33 2.31 0.66 4.62 1 7 C-1.97 7 -4.94 7 -8 7 C-8 5.68 -8 4.36 -8 3 C-2.25 0 -2.25 0 0 0 Z " fill="#131617" transform="translate(139,222)"/>
<path d="M0 0 C3.96 0 7.92 0 12 0 C12 0.66 12 1.32 12 2 C10.9275 2.433125 9.855 2.86625 8.75 3.3125 C5.83727354 4.55321513 3.43963834 5.95070379 1 8 C0 7 0 7 -0.0625 3.4375 C-0.041875 2.303125 -0.02125 1.16875 0 0 Z " fill="#020304" transform="translate(113,179)"/>
<path d="M0 0 C2.5 0.125 2.5 0.125 3.5 1.125 C3.625 3.625 3.625 3.625 3.5 6.125 C2.5 7.125 2.5 7.125 0.0625 7.3125 C-2.5 7.125 -2.5 7.125 -4.5 5.125 C-3.7519084 0.18759542 -3.7519084 0.18759542 0 0 Z " fill="#E4E5E6" transform="translate(133.5,210.875)"/>
<path d="M0 0 C0.66 0 1.32 0 2 0 C2 2.97 2 5.94 2 9 C-0.31 9 -2.62 9 -5 9 C-3.7580393 5.56072421 -2.44259716 2.74792181 0 0 Z " fill="#6A919B" transform="translate(124,212)"/>
<path d="M0 0 C4.29 0 8.58 0 13 0 C13 0.66 13 1.32 13 2 C8.46298506 3.45184478 4.81938524 4.23509196 0 4 C0 2.68 0 1.36 0 0 Z " fill="#020203" transform="translate(156,223)"/>
<path d="M0 0 C2.97 0 5.94 0 9 0 C8 3 8 3 5 5 C2.3125 5.125 2.3125 5.125 0 5 C0 3.35 0 1.7 0 0 Z " fill="#010202" transform="translate(142,187)"/>
<path d="M0 0 C1.98 0 3.96 0 6 0 C4.68775452 3.93673644 3.08089673 6.22719294 0 9 C0 6.03 0 3.06 0 0 Z " fill="#5A8E99" transform="translate(156,193)"/>
<path d="M0 0 C1.65 0 3.3 0 5 0 C4.34 1.98 3.68 3.96 3 6 C2.67 6 2.34 6 2 6 C1.67 8.31 1.34 10.62 1 13 C0.67 13 0.34 13 0 13 C0 8.71 0 4.42 0 0 Z " fill="#080A0B" transform="translate(112,223)"/>
<path d="M0 0 C0.33 0 0.66 0 1 0 C1.16682272 4.92127034 1.24828052 8.50343896 -1 13 C-1.33 13 -1.66 13 -2 13 C-2.05447047 11.58376784 -2.09300508 10.16691809 -2.125 8.75 C-2.14820312 7.96109375 -2.17140625 7.1721875 -2.1953125 6.359375 C-1.9828378 3.79268059 -1.28654105 2.2083933 0 0 Z " fill="#050606" transform="translate(28,161)"/>
<path d="M0 0 C0 2.97 0 5.94 0 9 C-0.66 8.34 -1.32 7.68 -2 7 C-2.66 7.99 -3.32 8.98 -4 10 C-3.88637738 8.5199159 -3.75877092 7.04089926 -3.625 5.5625 C-3.55539063 4.73878906 -3.48578125 3.91507813 -3.4140625 3.06640625 C-3.27742188 2.38449219 -3.14078125 1.70257813 -3 1 C-1 0 -1 0 0 0 Z " fill="#1E1D1B" transform="translate(30,155)"/>
<path d="M0 0 C1.9453125 -0.29296875 1.9453125 -0.29296875 4.125 -0.1875 C5.40375 -0.125625 6.6825 -0.06375 8 0 C6.375 2.0625 6.375 2.0625 4 4 C0.75 3.75 0.75 3.75 -2 3 C-1.34 2.01 -0.68 1.02 0 0 Z " fill="#5B919D" transform="translate(144,208)"/>
<path d="M0 0 C1.98 0 3.96 0 6 0 C6 1.98 6 3.96 6 6 C5.34 6 4.68 6 4 6 C3.34 5.01 2.68 4.02 2 3 C1.34 2.67 0.68 2.34 0 2 C0 1.34 0 0.68 0 0 Z " fill="#8CAEB7" transform="translate(134,208)"/>
<path d="M0 0 C0.66 0 1.32 0 2 0 C2.042721 1.66611905 2.04063832 3.33382885 2 5 C1 6 1 6 -1.5625 6.0625 C-2.7690625 6.0315625 -2.7690625 6.0315625 -4 6 C-4 5.34 -4 4.68 -4 4 C-3.01 3.67 -2.02 3.34 -1 3 C-0.67 2.01 -0.34 1.02 0 0 Z " fill="#8EAFB7" transform="translate(138,215)"/>
<path d="M0 0 C1.98 0 3.96 0 6 0 C6 0.99 6 1.98 6 3 C3.69 3 1.38 3 -1 3 C-0.67 2.01 -0.34 1.02 0 0 Z " fill="#5C8E99" transform="translate(120,218)"/>
<path d="M0 0 C1.98 0.66 3.96 1.32 6 2 C6 2.66 6 3.32 6 4 C4.02 4 2.04 4 0 4 C0 2.68 0 1.36 0 0 Z " fill="#8DB1BA" transform="translate(127,217)"/>
</svg>
